<svg width="18" height="22" viewBox="0 0 18 22" fill="none" xmlns="http://www.w3.org/2000/svg">
<path d="M12.1851 3.62234C12.5946 3.15031 12.9069 2.60202 13.104 2.00897C13.301 1.41592 13.379 0.789776 13.3334 0.166504C12.0761 0.267998 10.9089 0.859356 10.0834 1.81317C9.68811 2.27031 9.38855 2.80212 9.20246 3.37712C9.01638 3.95211 8.94756 4.5586 9.00009 5.16067C9.61341 5.16578 10.2197 5.02969 10.772 4.76293C11.3243 4.49618 11.8078 4.10591 12.1851 3.62234ZM14.9151 11.6823C14.9224 10.8522 15.141 10.0376 15.5504 9.31547C15.9598 8.59331 16.5465 7.98737 17.2551 7.55484C16.8079 6.91051 16.2168 6.37924 15.5285 6.00315C14.8403 5.62706 14.0739 5.4165 13.2901 5.38817C11.6001 5.21484 10.0401 6.374 9.14092 6.374C8.24175 6.374 6.97425 5.40984 5.56592 5.4315C4.64523 5.46183 3.74811 5.73027 2.96207 6.21062C2.17603 6.69098 1.52791 7.36686 1.08092 8.17234C-0.825746 11.4873 0.593421 16.4165 2.50009 19.0923C3.36675 20.4032 4.45009 21.8873 5.88009 21.8332C7.31009 21.779 7.77592 20.9448 9.43342 20.9448C11.0909 20.9448 11.6001 21.8332 13.0084 21.8007C14.4168 21.7682 15.4134 20.4573 16.3234 19.1465C16.9681 18.1948 17.4716 17.1549 17.8184 16.059C16.9599 15.6929 16.2273 15.0832 15.7114 14.3054C15.1954 13.5276 14.9186 12.6157 14.9151 11.6823Z" fill="black"/>
</svg>
