<svg width="24" height="24" viewBox="0 0 24 24" fill="none" xmlns="http://www.w3.org/2000/svg">
<path d="M21.0601 11.8196L20.9001 11.5996C20.6201 11.2596 20.2901 10.9896 19.9101 10.7896C19.4001 10.4996 18.8201 10.3496 18.2201 10.3496H5.77008C5.17007 10.3496 4.60008 10.4996 4.08008 10.7896C3.69008 10.9996 3.34008 11.2896 3.05008 11.6496C2.48008 12.3796 2.21008 13.2796 2.30008 14.1796L2.67008 18.8496C2.80008 20.2596 2.97007 21.9996 6.14007 21.9996H17.8601C21.0301 21.9996 21.1901 20.2596 21.3301 18.8396L21.7001 14.1896C21.7901 13.3496 21.5701 12.5096 21.0601 11.8196ZM14.3901 17.3396H9.60008C9.21008 17.3396 8.90007 17.0196 8.90007 16.6396C8.90007 16.2596 9.21008 15.9396 9.60008 15.9396H14.3901C14.7801 15.9396 15.0901 16.2596 15.0901 16.6396C15.0901 17.0296 14.7801 17.3396 14.3901 17.3396Z" fill="#0061FF"/>
<path d="M20.5611 8.59643C20.5987 8.97928 20.1834 9.23561 19.8186 9.11348C19.3138 8.94449 18.7825 8.86 18.23 8.86H5.77C5.21316 8.86 4.66491 8.95012 4.15335 9.12194C3.79295 9.24298 3.38 8.99507 3.38 8.61489V6.66C3.38 3.09 4.47 2 8.04 2H9.22001C10.65 2 11.1 2.46 11.68 3.21L12.88 4.81C13.13 5.15 13.14 5.17 13.58 5.17H15.96C19.0857 5.17 20.307 6.00724 20.5611 8.59643Z" fill="#0061FF"/>
</svg>
