<svg width="50" height="50" viewBox="0 0 50 50" fill="none" xmlns="http://www.w3.org/2000/svg">
<rect opacity="0.1" width="50" height="50" rx="10" fill="#0061FF"/>
<path d="M35.5701 24.7897L35.3834 24.533C35.0567 24.1364 34.6717 23.8214 34.2284 23.588C33.6334 23.2497 32.9567 23.0747 32.2567 23.0747H17.7317C17.0317 23.0747 16.3667 23.2497 15.7601 23.588C15.3051 23.833 14.8967 24.1714 14.5584 24.5914C13.8934 25.443 13.5784 26.493 13.6834 27.543L14.1151 32.9914C14.2667 34.6364 14.4651 36.6664 18.1634 36.6664H31.8367C35.5351 36.6664 35.7217 34.6364 35.8851 32.9797L36.3167 27.5547C36.4217 26.5747 36.1651 25.5947 35.5701 24.7897ZM27.7884 31.2297H22.2001C21.7451 31.2297 21.3834 30.8564 21.3834 30.413C21.3834 29.9697 21.7451 29.5964 22.2001 29.5964H27.7884C28.2434 29.5964 28.6051 29.9697 28.6051 30.413C28.6051 30.868 28.2434 31.2297 27.7884 31.2297Z" fill="#0061FF"/>
<path d="M35.001 21.1708C35.0335 21.5541 34.6193 21.8111 34.2578 21.6796C33.6286 21.4508 32.9628 21.3363 32.2684 21.3363H17.7317C17.0335 21.3363 16.3469 21.4578 15.7126 21.6884C15.3553 21.8184 14.9434 21.5714 14.9434 21.1912V18.7697C14.9434 14.6047 16.215 13.333 20.38 13.333H21.7567C23.425 13.333 23.95 13.8697 24.6267 14.7447L26.0267 16.6113C26.3184 17.008 26.33 17.0313 26.8434 17.0313H29.62C33.3232 17.0313 34.7352 18.0386 35.001 21.1708Z" fill="#0061FF"/>
</svg>
