<svg width="50" height="50" viewBox="0 0 50 50" fill="none" xmlns="http://www.w3.org/2000/svg">
<rect opacity="0.1" width="50" height="50" rx="10" fill="#7452FF"/>
<path d="M29.4336 13.5784C28.9553 13.1001 28.127 13.4267 28.127 14.0917V18.1634C28.127 19.8667 29.5736 21.2784 31.3353 21.2784C32.4436 21.2901 33.9836 21.2901 35.302 21.2901C35.967 21.2901 36.317 20.5084 35.8503 20.0417C34.1703 18.3501 31.1603 15.3051 29.4336 13.5784Z" fill="#7452FF"/>
<path d="M34.9165 22.8885H31.5448C28.7798 22.8885 26.5282 20.6368 26.5282 17.8718V14.5002C26.5282 13.8585 26.0032 13.3335 25.3615 13.3335H20.4148C16.8215 13.3335 13.9165 15.6668 13.9165 19.8318V30.1685C13.9165 34.3335 16.8215 36.6668 20.4148 36.6668H29.5848C33.1782 36.6668 36.0832 34.3335 36.0832 30.1685V24.0552C36.0832 23.4135 35.5582 22.8885 34.9165 22.8885ZM24.4165 31.7085H19.7498C19.2715 31.7085 18.8748 31.3118 18.8748 30.8335C18.8748 30.3552 19.2715 29.9585 19.7498 29.9585H24.4165C24.8948 29.9585 25.2915 30.3552 25.2915 30.8335C25.2915 31.3118 24.8948 31.7085 24.4165 31.7085ZM26.7498 27.0418H19.7498C19.2715 27.0418 18.8748 26.6452 18.8748 26.1668C18.8748 25.6885 19.2715 25.2918 19.7498 25.2918H26.7498C27.2282 25.2918 27.6248 25.6885 27.6248 26.1668C27.6248 26.6452 27.2282 27.0418 26.7498 27.0418Z" fill="#7452FF"/>
</svg>
