<svg width="22" height="22" viewBox="0 0 22 22" fill="none" xmlns="http://www.w3.org/2000/svg">
<path d="M17.5312 16.5H4.46875C4.08905 16.5 3.78125 16.8078 3.78125 17.1875V17.875C3.78125 18.2547 4.08905 18.5625 4.46875 18.5625H17.5312C17.9109 18.5625 18.2188 18.2547 18.2188 17.875V17.1875C18.2188 16.8078 17.9109 16.5 17.5312 16.5Z" fill="#FADF7D"/>
<path d="M17.5312 17.875H4.46875C4.28658 17.8745 4.11203 17.8018 3.98322 17.673C3.8544 17.5442 3.78179 17.3697 3.78125 17.1875V17.875C3.78179 18.0572 3.8544 18.2317 3.98322 18.3605C4.11203 18.4893 4.28658 18.562 4.46875 18.5625H17.5312C17.7134 18.562 17.888 18.4893 18.0168 18.3605C18.1456 18.2317 18.2182 18.0572 18.2188 17.875V17.1875C18.2182 17.3697 18.1456 17.5442 18.0168 17.673C17.888 17.8018 17.7134 17.8745 17.5312 17.875Z" fill="#FFBF40"/>
<path d="M2.47169 7.33889C2.21568 7.50639 1.91114 7.58372 1.60624 7.55866C1.30134 7.5336 1.0135 7.40757 0.788288 7.20053C0.563071 6.99348 0.413336 6.71723 0.36278 6.41551C0.312223 6.11379 0.363732 5.80383 0.509155 5.53468C0.654578 5.26552 0.885609 5.05255 1.16569 4.92947C1.44576 4.80639 1.75889 4.78023 2.0555 4.85513C2.35212 4.93003 2.61529 5.1017 2.80336 5.34299C2.99143 5.58428 3.09366 5.8814 3.09387 6.18733C3.09403 6.41586 3.03723 6.64083 2.92859 6.84189C2.81996 7.04296 2.66292 7.21377 2.47169 7.33889ZM11.6979 5.99483C11.487 6.12082 11.2458 6.18735 11.0001 6.18735C10.7544 6.18735 10.5133 6.12082 10.3023 5.99483C10.0424 5.84174 9.84001 5.60741 9.72639 5.32797C9.61277 5.04852 9.59419 4.73946 9.67353 4.44842C9.75287 4.15738 9.92572 3.9005 10.1654 3.71738C10.4052 3.53426 10.6985 3.43506 11.0001 3.43506C11.3018 3.43506 11.5951 3.53426 11.8348 3.71738C12.0745 3.9005 12.2474 4.15738 12.3267 4.44842C12.4061 4.73946 12.3875 5.04852 12.2739 5.32797C12.1602 5.60741 11.9579 5.84174 11.6979 5.99483ZM20.2814 7.56233C20.0094 7.56233 19.7436 7.48169 19.5175 7.3306C19.2913 7.17951 19.1151 6.96477 19.011 6.71352C18.907 6.46227 18.8797 6.1858 18.9328 5.91908C18.9858 5.65236 19.1168 5.40736 19.3091 5.21506C19.5014 5.02276 19.7464 4.8918 20.0131 4.83875C20.2798 4.7857 20.5563 4.81292 20.8076 4.917C21.0588 5.02107 21.2736 5.1973 21.4246 5.42342C21.5757 5.64954 21.6564 5.91538 21.6564 6.18733C21.6564 6.552 21.5115 6.90174 21.2536 7.1596C20.9958 7.41746 20.646 7.56233 20.2814 7.56233Z" fill="#FFC608"/>
<path d="M16.4999 7.84407C16.3901 7.8857 16.2736 7.90668 16.1562 7.90595C16.0064 7.9063 15.8585 7.87343 15.723 7.8097C15.5051 7.70978 15.3286 7.53719 15.2239 7.3215C15.1192 7.1058 15.0927 6.86041 15.149 6.62735C15.2054 6.39429 15.3409 6.18805 15.5326 6.04394C15.7242 5.89984 15.96 5.82684 16.1995 5.83744C16.439 5.84804 16.6674 5.94158 16.8456 6.10204C17.0237 6.26251 17.1406 6.47992 17.1761 6.71704C17.2116 6.95417 17.1635 7.19626 17.0402 7.40186C16.9168 7.60747 16.7258 7.76379 16.4999 7.84407ZM6.27678 7.8097C6.1413 7.87343 5.99337 7.9063 5.84365 7.90595C5.72624 7.90668 5.6097 7.8857 5.4999 7.84407C5.27544 7.7638 5.08582 7.60803 4.96349 7.40342C4.84116 7.19881 4.79371 6.95806 4.82924 6.72233C4.86478 6.4866 4.9811 6.27054 5.15831 6.11109C5.33553 5.95163 5.56263 5.85869 5.80079 5.84815C6.03895 5.83761 6.27337 5.91013 6.46397 6.05331C6.65458 6.19649 6.78953 6.40144 6.84574 6.63311C6.90196 6.86477 6.87596 7.10878 6.77217 7.32339C6.66839 7.53801 6.49328 7.70991 6.27678 7.8097Z" fill="#FF9C00"/>
<path d="M8.84812 11.9557C8.43219 12.6191 7.89937 13.0626 7.21875 13.0626C6.72375 13.0626 6.11531 12.5779 5.5 11.8869V7.84443C5.60979 7.88606 5.72633 7.90704 5.84375 7.90631C5.99347 7.90666 6.1414 7.87379 6.27688 7.81006C6.55531 8.556 7.47312 10.7938 8.84812 11.9557ZM16.5 7.84443V11.8869C15.8847 12.5779 15.2762 13.0626 14.7812 13.0626C14.1006 13.0626 13.5678 12.6191 13.1519 11.9557C14.5269 10.7938 15.4447 8.556 15.7231 7.81006C15.8586 7.87379 16.0065 7.90666 16.1562 7.90631C16.2737 7.90704 16.3902 7.88606 16.5 7.84443Z" fill="#FFAA00"/>
<path d="M11.7116 15.3928C11.7712 15.438 11.8432 15.464 11.918 15.4675C11.9928 15.471 12.0669 15.4518 12.1305 15.4123C12.1942 15.3729 12.2444 15.3151 12.2745 15.2465C12.3046 15.178 12.3133 15.1019 12.2994 15.0284L12.1172 14.1415L12.6019 13.6671C12.6516 13.6179 12.6856 13.555 12.6995 13.4864C12.7135 13.4179 12.7068 13.3467 12.6803 13.2819C12.6538 13.2171 12.6087 13.1617 12.5507 13.1226C12.4927 13.0834 12.4244 13.0624 12.3544 13.0621H11.6841L11.3334 12.2371C11.3025 12.1752 11.2549 12.123 11.196 12.0866C11.1371 12.0501 11.0693 12.0308 11 12.0308C10.9307 12.0308 10.8629 12.0501 10.804 12.0866C10.7451 12.123 10.6975 12.1752 10.6666 12.2371L10.3159 13.0621H9.64562C9.57565 13.0624 9.50733 13.0834 9.44931 13.1226C9.39129 13.1617 9.34618 13.2171 9.31969 13.2819C9.29319 13.3467 9.2865 13.4179 9.30046 13.4864C9.31443 13.555 9.34841 13.6179 9.39813 13.6671L9.88281 14.1415L9.70062 15.0284C9.68669 15.1019 9.69536 15.178 9.72551 15.2465C9.75565 15.3151 9.80584 15.3729 9.86947 15.4123C9.93311 15.4518 10.0072 15.471 10.082 15.4675C10.1568 15.464 10.2288 15.438 10.2884 15.3928L11 14.8703L11.7116 15.3928ZM16.5 11.8865C17.8406 10.3878 19.2191 7.90932 19.5284 7.33869C19.7523 7.48477 20.0139 7.56241 20.2812 7.56213L17.5312 15.1246V16.4996H4.46875V15.1246L1.71875 7.56213C1.98607 7.56241 2.24768 7.48477 2.47156 7.33869C2.78094 7.90932 4.15937 10.3878 5.5 11.8865C6.11531 12.5774 6.72375 13.0621 7.21875 13.0621C7.89937 13.0621 8.43219 12.6187 8.84812 11.9553C9.97219 10.1643 10.2541 6.75088 10.3022 5.99463C10.5131 6.12062 10.7543 6.18715 11 6.18715C11.2457 6.18715 11.4869 6.12062 11.6978 5.99463C11.7459 6.75088 12.0278 10.1643 13.1519 11.9553C13.5678 12.6187 14.1006 13.0621 14.7812 13.0621C15.2762 13.0621 15.8847 12.5774 16.5 11.8865Z" fill="#FADF7D"/>
<path d="M11.3334 12.2375L11.684 13.0625H12.3544C12.4243 13.0628 12.4927 13.0839 12.5507 13.123C12.6087 13.1621 12.6538 13.2176 12.6803 13.2823C12.7068 13.3471 12.7135 13.4183 12.6995 13.4868C12.6856 13.5554 12.6516 13.6183 12.6019 13.6675L12.1172 14.1419L12.2994 15.0288C12.3133 15.1023 12.3046 15.1784 12.2745 15.2469C12.2443 15.3155 12.1941 15.3733 12.1305 15.4127C12.0669 15.4522 11.9928 15.4714 11.918 15.4679C11.8432 15.4644 11.7712 15.4384 11.7115 15.3932L11 14.8707L10.2884 15.3932C10.2287 15.4384 10.1568 15.4644 10.082 15.4679C10.0072 15.4714 9.93309 15.4522 9.86946 15.4127C9.80582 15.3733 9.75563 15.3155 9.72549 15.2469C9.69535 15.1784 9.68667 15.1023 9.70061 15.0288L9.8828 14.1419L9.39811 13.6675C9.3484 13.6183 9.31441 13.5554 9.30045 13.4868C9.28649 13.4183 9.29317 13.3471 9.31967 13.2823C9.34617 13.2176 9.39128 13.1621 9.4493 13.123C9.50731 13.0839 9.57563 13.0628 9.64561 13.0625H10.3159L10.6665 12.2375C10.6975 12.1756 10.745 12.1234 10.8039 12.087C10.8628 12.0506 10.9307 12.0312 11 12.0312C11.0692 12.0312 11.1371 12.0506 11.196 12.087C11.2549 12.1234 11.3025 12.1756 11.3334 12.2375Z" fill="#D1013E"/>
<path d="M11.6978 5.30741C11.4868 5.4334 11.2457 5.49993 11 5.49993C10.7542 5.49993 10.5131 5.4334 10.3021 5.30741C9.99012 5.12487 9.76318 4.82611 9.67102 4.47656C9.59384 4.76382 9.6139 5.06853 9.72806 5.34319C9.84223 5.61785 10.0441 5.847 10.3021 5.99491C10.5131 6.1209 10.7542 6.18743 11 6.18743C11.2457 6.18743 11.4868 6.1209 11.6978 5.99491C11.9558 5.847 12.1577 5.61785 12.2718 5.34319C12.386 5.06853 12.4061 4.76382 12.3289 4.47656C12.2367 4.82611 12.0098 5.12487 11.6978 5.30741ZM20.979 6.68241C20.7681 6.8084 20.5269 6.87493 20.2812 6.87493C20.0355 6.87493 19.7943 6.8084 19.5834 6.68241C19.2714 6.49987 19.0444 6.20111 18.9523 5.85156C18.8751 6.13882 18.8951 6.44353 19.0093 6.71819C19.1235 6.99285 19.3253 7.222 19.5834 7.36991C19.7943 7.4959 20.0355 7.56243 20.2812 7.56243C20.5269 7.56243 20.7681 7.4959 20.979 7.36991C21.2371 7.222 21.4389 6.99285 21.5531 6.71819C21.6673 6.44353 21.6873 6.13882 21.6101 5.85156C21.518 6.20111 21.291 6.49987 20.979 6.68241ZM2.41652 6.68241C2.20556 6.8084 1.96442 6.87493 1.71871 6.87493C1.47299 6.87493 1.23185 6.8084 1.02089 6.68241C0.708875 6.49987 0.481927 6.20111 0.389768 5.85156C0.31259 6.13882 0.332649 6.44353 0.446815 6.71819C0.560981 6.99285 0.762835 7.222 1.02089 7.36991C1.23185 7.4959 1.47299 7.56243 1.71871 7.56243C1.96442 7.56243 2.20556 7.4959 2.41652 7.36991C2.67458 7.222 2.87643 6.99285 2.9906 6.71819C3.10476 6.44353 3.12482 6.13882 3.04764 5.85156C2.95548 6.20111 2.72854 6.49987 2.41652 6.68241Z" fill="#FFAA00"/>
<path d="M6.27689 7.12234C6.14141 7.18606 5.99348 7.21894 5.84376 7.21859C5.72634 7.21932 5.6098 7.19834 5.50001 7.15671C5.35568 7.10681 5.22444 7.02503 5.11607 6.91743C5.0077 6.80983 4.92497 6.67918 4.87404 6.53521C4.8346 6.64416 4.8138 6.75897 4.81251 6.87484C4.81149 7.08798 4.87724 7.2961 5.00055 7.46996C5.12386 7.64382 5.29852 7.7747 5.50001 7.84421C5.6098 7.88584 5.72634 7.90682 5.84376 7.90609C5.99348 7.90644 6.14141 7.87356 6.27689 7.80984C6.51082 7.7042 6.69613 7.51397 6.7956 7.27735C6.89507 7.04072 6.90133 6.77523 6.81314 6.53418C6.7676 6.66308 6.69669 6.78155 6.60458 6.88257C6.51247 6.98359 6.40105 7.06512 6.27689 7.12234ZM16.5894 7.12234C16.4539 7.18606 16.306 7.21894 16.1563 7.21859C16.0388 7.21932 15.9223 7.19834 15.8125 7.15671C15.6682 7.10681 15.5369 7.02503 15.4286 6.91743C15.3202 6.80983 15.2375 6.67918 15.1865 6.53521C15.1471 6.64416 15.1263 6.75897 15.125 6.87484C15.124 7.08798 15.1897 7.2961 15.313 7.46996C15.4364 7.64382 15.611 7.7747 15.8125 7.84421C15.9223 7.88584 16.0388 7.90682 16.1563 7.90609C16.306 7.90644 16.4539 7.87356 16.5894 7.80984C16.8233 7.7042 17.0086 7.51397 17.1081 7.27735C17.2076 7.04072 17.2138 6.77523 17.1256 6.53418C17.0801 6.66308 17.0092 6.78155 16.9171 6.88257C16.825 6.98359 16.7135 7.06512 16.5894 7.12234Z" fill="#DE8800"/>
<path d="M6.19231 11.9144C6.08621 11.8546 5.99797 11.7676 5.9367 11.6624C5.87543 11.5571 5.84335 11.4374 5.84375 11.3156V9.28131C5.84375 9.09897 5.91618 8.9241 6.04511 8.79517C6.17405 8.66624 6.34891 8.59381 6.53125 8.59381H6.59622C6.45287 8.26793 6.34528 7.99362 6.27688 7.81006C6.1414 7.87379 5.99347 7.90666 5.84375 7.90631C5.72633 7.90704 5.60979 7.88606 5.5 7.84443V11.8869C6.11531 12.5779 6.72375 13.0626 7.21875 13.0626C7.89937 13.0626 8.43219 12.6191 8.84812 11.9557C8.81375 11.9258 8.77938 11.8924 8.745 11.8612C7.7935 12.6267 6.72822 12.2159 6.19231 11.9144ZM16.1562 7.90631C16.0065 7.90666 15.8586 7.87379 15.7231 7.81006C15.6544 7.99362 15.5471 8.26793 15.4038 8.59381H15.4688C15.6511 8.59381 15.826 8.66624 15.9549 8.79517C16.0838 8.9241 16.1562 9.09897 16.1562 9.28131V11.3156C16.1567 11.4374 16.1246 11.5571 16.0633 11.6624C16.002 11.7676 15.9138 11.8546 15.8077 11.9144C15.2718 12.2159 14.2075 12.6243 13.2571 11.8601C13.2227 11.8917 13.1883 11.9254 13.1519 11.9557C13.5678 12.6191 14.1006 13.0626 14.7812 13.0626C15.2762 13.0626 15.8847 12.5779 16.5 11.8869V7.84443C16.3902 7.88606 16.2737 7.90704 16.1562 7.90631Z" fill="#FF9C00"/>
<path d="M19.459 8.51449C19.4964 8.44122 19.5586 8.38367 19.6346 8.35217C19.7106 8.32067 19.7953 8.31728 19.8736 8.34262L19.9839 8.3794L20.2812 7.5623C20.0139 7.56259 19.7523 7.48494 19.5284 7.33887C19.2191 7.90949 17.8406 10.3879 16.5 11.8867C15.9634 12.4893 15.4323 12.9344 14.9768 13.0386C15.5812 12.9272 17.5044 12.2799 19.459 8.51449ZM11.7116 15.3929L11.3465 15.1248H10.6535L10.2884 15.3929C10.2352 15.4327 10.1724 15.4574 10.1064 15.4646C10.0404 15.4718 9.97363 15.4611 9.91314 15.4337C9.85266 15.4063 9.80062 15.3632 9.76245 15.3089C9.72429 15.2546 9.7014 15.191 9.69616 15.1248H6.53125C6.25775 15.1248 5.99544 15.0162 5.80205 14.8228C5.60865 14.6294 5.5 14.3671 5.5 14.0936L2.67334 8.75443C2.6456 8.70204 2.63188 8.64336 2.63351 8.5841C2.63514 8.52484 2.65206 8.46701 2.68265 8.41622C2.71323 8.36544 2.75643 8.32343 2.80804 8.29426C2.85966 8.2651 2.91794 8.24979 2.97722 8.2498H2.98581C2.74312 7.83352 2.56128 7.50455 2.47019 7.33887C2.2467 7.48469 1.9856 7.56232 1.71875 7.5623L4.46875 15.1248V16.4998H17.5312V15.1248H12.3038C12.2986 15.191 12.2757 15.2546 12.2375 15.3089C12.1994 15.3632 12.1473 15.4063 12.0869 15.4337C12.0264 15.4611 11.9596 15.4718 11.8936 15.4646C11.8276 15.4574 11.7648 15.4327 11.7116 15.3929Z" fill="#FFBF40"/>
<path d="M10.6287 7.51813C10.6399 7.34352 10.7173 7.17976 10.845 7.06019C10.9728 6.94063 11.1413 6.87427 11.3162 6.87463H11.7762C11.7339 6.47932 11.7102 6.16616 11.6992 5.99463C11.4882 6.12062 11.2471 6.18715 11.0014 6.18715C10.7557 6.18715 10.5145 6.12062 10.3036 5.99463C10.2554 6.75088 9.97356 10.1643 8.8495 11.9553C8.43219 12.6187 7.89937 13.0621 7.21875 13.0621C9.96875 13.0621 10.5187 9.10213 10.6287 7.51813Z" fill="#FFBF40"/>
<path d="M12.9978 13.1512C12.9459 13.0231 12.857 12.9135 12.7423 12.8364C12.6276 12.7594 12.4925 12.7184 12.3543 12.7188H11.9112L11.6496 12.1028C11.6469 12.0963 11.6438 12.0898 11.6403 12.0832C11.5812 11.964 11.4899 11.8637 11.3767 11.7938C11.2635 11.7238 11.133 11.687 10.9999 11.6875C10.8634 11.688 10.7298 11.7273 10.6148 11.8008C10.4998 11.8743 10.408 11.9791 10.3502 12.1028L10.0887 12.7188H9.64556C9.50727 12.7191 9.37219 12.7604 9.25749 12.8377C9.14278 12.9149 9.05362 13.0245 9.00135 13.1525C8.94907 13.2806 8.93603 13.4213 8.96388 13.5567C8.99173 13.6922 9.05923 13.8163 9.15778 13.9133L9.50806 14.257L9.36403 14.9593C9.33429 15.0998 9.34842 15.246 9.40449 15.3782C9.46056 15.5104 9.55587 15.6221 9.67753 15.6984C9.79343 15.7728 9.92822 15.8125 10.066 15.8128C10.2194 15.8128 10.3688 15.763 10.4915 15.6709L10.9999 15.2969L11.5059 15.6688C11.6226 15.7568 11.7635 15.8068 11.9096 15.8119C12.0556 15.8171 12.1997 15.7772 12.3223 15.6977C12.4439 15.6216 12.5391 15.51 12.5953 15.378C12.6514 15.246 12.6657 15.1 12.6362 14.9597L12.4918 14.2563L12.8431 13.9126C12.9419 13.8156 13.0094 13.6912 13.0369 13.5556C13.0645 13.4199 13.0509 13.2791 12.9978 13.1512ZM12.6018 13.6668L12.1171 14.1412L12.2993 15.0281C12.3132 15.1016 12.3046 15.1777 12.2744 15.2462C12.2443 15.3148 12.1941 15.3726 12.1305 15.412C12.0668 15.4514 11.9927 15.4707 11.9179 15.4672C11.8432 15.4637 11.7712 15.4376 11.7115 15.3924L10.9999 14.8706L10.2884 15.3931C10.2287 15.4383 10.1567 15.4644 10.0819 15.4679C10.0071 15.4714 9.93304 15.4521 9.86941 15.4127C9.80578 15.3732 9.75558 15.3154 9.72544 15.2469C9.6953 15.1784 9.68663 15.1023 9.70056 15.0288L9.88275 14.1419L9.39806 13.6675C9.34835 13.6183 9.31436 13.5554 9.3004 13.4868C9.28644 13.4182 9.29313 13.3471 9.31962 13.2823C9.34612 13.2175 9.39123 13.1621 9.44925 13.1229C9.50727 13.0838 9.57558 13.0628 9.64556 13.0625H10.3159L10.6665 12.2375C10.6974 12.1755 10.745 12.1234 10.8039 12.087C10.8628 12.0505 10.9307 12.0312 10.9999 12.0312C11.0692 12.0312 11.1371 12.0505 11.196 12.087C11.2549 12.1234 11.3025 12.1755 11.3334 12.2375L11.684 13.0625H12.3543C12.4243 13.0628 12.4926 13.0838 12.5506 13.1229C12.6086 13.1621 12.6538 13.2175 12.6802 13.2823C12.7067 13.3471 12.7134 13.4182 12.6995 13.4868C12.6855 13.5554 12.6515 13.6183 12.6018 13.6675V13.6668Z" fill="#FF9C00"/>
<path d="M16.5 6.875C16.6898 6.875 16.8438 6.7211 16.8438 6.53125C16.8438 6.3414 16.6898 6.1875 16.5 6.1875C16.3102 6.1875 16.1562 6.3414 16.1562 6.53125C16.1562 6.7211 16.3102 6.875 16.5 6.875Z" fill="#FFC608"/>
<path d="M6.1875 6.875C6.37735 6.875 6.53125 6.7211 6.53125 6.53125C6.53125 6.3414 6.37735 6.1875 6.1875 6.1875C5.99765 6.1875 5.84375 6.3414 5.84375 6.53125C5.84375 6.7211 5.99765 6.875 6.1875 6.875Z" fill="#FFC608"/>
<path d="M11.3438 4.8125C11.5336 4.8125 11.6875 4.6586 11.6875 4.46875C11.6875 4.2789 11.5336 4.125 11.3438 4.125C11.1539 4.125 11 4.2789 11 4.46875C11 4.6586 11.1539 4.8125 11.3438 4.8125Z" fill="#FFFCED"/>
<path d="M20.9688 6.1875C21.1586 6.1875 21.3125 6.0336 21.3125 5.84375C21.3125 5.6539 21.1586 5.5 20.9688 5.5C20.7789 5.5 20.625 5.6539 20.625 5.84375C20.625 6.0336 20.7789 6.1875 20.9688 6.1875Z" fill="#FFFCED"/>
<path d="M2.40625 6.1875C2.5961 6.1875 2.75 6.0336 2.75 5.84375C2.75 5.6539 2.5961 5.5 2.40625 5.5C2.2164 5.5 2.0625 5.6539 2.0625 5.84375C2.0625 6.0336 2.2164 6.1875 2.40625 6.1875Z" fill="#FFFCED"/>
</svg>
