<svg width="40" height="40" viewBox="0 0 40 40" fill="none" xmlns="http://www.w3.org/2000/svg">
<rect opacity="0.05" width="40" height="40" rx="6" fill="#0061FF"/>
<path d="M14.5667 25.408V22.9747C14.5667 22.1664 15.2 21.4413 16.1 21.4413C16.9083 21.4413 17.6333 22.0747 17.6333 22.9747V25.3164C17.6333 26.9414 16.2833 28.2914 14.6583 28.2914C13.0333 28.2914 11.6833 26.933 11.6833 25.3164V20.183C11.5916 15.4997 15.2917 11.708 19.975 11.708C24.6583 11.708 28.35 15.4997 28.35 20.0913V25.2247C28.35 26.8497 27 28.1997 25.375 28.1997C23.75 28.1997 22.4 26.8497 22.4 25.2247V22.883C22.4 22.0747 23.0333 21.3497 23.9333 21.3497C24.7417 21.3497 25.4666 21.983 25.4666 22.883V25.408" stroke="#0061FF" stroke-width="1.3" stroke-linecap="round" stroke-linejoin="round"/>
</svg>
