<svg width="349" height="279" viewBox="0 0 349 279" fill="none" xmlns="http://www.w3.org/2000/svg">
<g filter="url(#filter0_d_62_601)">
<path fill-rule="evenodd" clip-rule="evenodd" d="M28 1C19.1634 1 12 8.16344 12 17V240C12 248.837 19.1634 256 28 256H116.212C121.656 256 125.99 251.597 127.199 246.29C132.066 224.936 151.172 209 174 209C196.828 209 215.934 224.936 220.801 246.29C222.01 251.597 226.344 256 231.788 256H321C329.837 256 337 248.837 337 240V17C337 8.16345 329.837 1 321 1H28Z" fill="white"/>
</g>
<defs>
<filter id="filter0_d_62_601" x="0" y="0" width="349" height="279" filterUnits="userSpaceOnUse" color-interpolation-filters="sRGB">
<feFlood flood-opacity="0" result="BackgroundImageFix"/>
<feColorMatrix in="SourceAlpha" type="matrix" values="0 0 0 0 0 0 0 0 0 0 0 0 0 0 0 0 0 0 127 0" result="hardAlpha"/>
<feOffset dy="11"/>
<feGaussianBlur stdDeviation="6"/>
<feComposite in2="hardAlpha" operator="out"/>
<feColorMatrix type="matrix" values="0 0 0 0 0 0 0 0 0 0 0 0 0 0 0 0 0 0 0.02 0"/>
<feBlend mode="normal" in2="BackgroundImageFix" result="effect1_dropShadow_62_601"/>
<feBlend mode="normal" in="SourceGraphic" in2="effect1_dropShadow_62_601" result="shape"/>
</filter>
</defs>
</svg>
