<svg width="13" height="3" viewBox="0 0 13 3" fill="none" xmlns="http://www.w3.org/2000/svg">
<path d="M6.25 1.625C6.25 1.83211 6.41789 2 6.625 2C6.83211 2 7 1.83211 7 1.625C7 1.41789 6.83211 1.25 6.625 1.25C6.41789 1.25 6.25 1.41789 6.25 1.625Z" fill="#001521"/>
<path d="M10.75 1.625C10.75 1.83211 10.9179 2 11.125 2C11.3321 2 11.5 1.83211 11.5 1.625C11.5 1.41789 11.3321 1.25 11.125 1.25C10.9179 1.25 10.75 1.41789 10.75 1.625Z" fill="#001521"/>
<path d="M1.75 1.625C1.75 1.83211 1.91789 2 2.125 2C2.33211 2 2.5 1.83211 2.5 1.625C2.5 1.41789 2.33211 1.25 2.125 1.25C1.91789 1.25 1.75 1.41789 1.75 1.625Z" fill="#001521"/>
<path d="M6.25 1.625C6.25 1.83211 6.41789 2 6.625 2C6.83211 2 7 1.83211 7 1.625C7 1.41789 6.83211 1.25 6.625 1.25C6.41789 1.25 6.25 1.41789 6.25 1.625Z" stroke="#001521" stroke-width="1.6" stroke-linecap="round" stroke-linejoin="round"/>
<path d="M10.75 1.625C10.75 1.83211 10.9179 2 11.125 2C11.3321 2 11.5 1.83211 11.5 1.625C11.5 1.41789 11.3321 1.25 11.125 1.25C10.9179 1.25 10.75 1.41789 10.75 1.625Z" stroke="#001521" stroke-width="1.6" stroke-linecap="round" stroke-linejoin="round"/>
<path d="M1.75 1.625C1.75 1.83211 1.91789 2 2.125 2C2.33211 2 2.5 1.83211 2.5 1.625C2.5 1.41789 2.33211 1.25 2.125 1.25C1.91789 1.25 1.75 1.41789 1.75 1.625Z" stroke="#001521" stroke-width="1.6" stroke-linecap="round" stroke-linejoin="round"/>
</svg>
