<svg width="38" height="38" viewBox="0 0 38 38" fill="none" xmlns="http://www.w3.org/2000/svg">
<rect opacity="0.1" width="38" height="38" rx="10" fill="white"/>
<path d="M24.25 18.25V25.3C24.25 25.4193 24.2026 25.5338 24.1182 25.6182C24.0338 25.7026 23.9193 25.75 23.8 25.75H14.2C14.0807 25.75 13.9662 25.7026 13.8818 25.6182C13.7974 25.5338 13.75 25.4193 13.75 25.3V18.25M17.5 22.75V18.25M20.5 22.75V18.25M25.75 15.25H22M12.25 15.25H16M16 15.25V12.7C16 12.5807 16.0474 12.4662 16.1318 12.3818C16.2162 12.2974 16.3307 12.25 16.45 12.25H21.55C21.6693 12.25 21.7838 12.2974 21.8682 12.3818C21.9526 12.4662 22 12.5807 22 12.7V15.25M16 15.25H22" stroke="white" stroke-width="1.5" stroke-linecap="round" stroke-linejoin="round"/>
</svg>
