<svg width="22" height="22" viewBox="0 0 22 22" fill="none" xmlns="http://www.w3.org/2000/svg">
<path d="M14.4833 2.02579C14.1075 1.64995 13.4567 1.90662 13.4567 2.42912V5.62829C13.4567 6.96662 14.5933 8.07579 15.9775 8.07579C16.8483 8.08495 18.0583 8.08495 19.0942 8.08495C19.6167 8.08495 19.8917 7.47079 19.525 7.10412C18.205 5.77495 15.84 3.38245 14.4833 2.02579Z" fill="white"/>
<path d="M18.7916 9.34051H16.1425C13.97 9.34051 12.2008 7.57134 12.2008 5.39884V2.74967C12.2008 2.24551 11.7883 1.83301 11.2841 1.83301H7.39746C4.57413 1.83301 2.29163 3.66634 2.29163 6.93884V15.0605C2.29163 18.333 4.57413 20.1663 7.39746 20.1663H14.6025C17.4258 20.1663 19.7083 18.333 19.7083 15.0605V10.2572C19.7083 9.75301 19.2958 9.34051 18.7916 9.34051ZM10.5416 16.2705H6.87496C6.49913 16.2705 6.18746 15.9588 6.18746 15.583C6.18746 15.2072 6.49913 14.8955 6.87496 14.8955H10.5416C10.9175 14.8955 11.2291 15.2072 11.2291 15.583C11.2291 15.9588 10.9175 16.2705 10.5416 16.2705ZM12.375 12.6038H6.87496C6.49913 12.6038 6.18746 12.2922 6.18746 11.9163C6.18746 11.5405 6.49913 11.2288 6.87496 11.2288H12.375C12.7508 11.2288 13.0625 11.5405 13.0625 11.9163C13.0625 12.2922 12.7508 12.6038 12.375 12.6038Z" fill="white"/>
</svg>
