<svg width="22" height="19" viewBox="0 0 22 19" fill="none" xmlns="http://www.w3.org/2000/svg">
<path d="M14.4832 2.22053C14.1074 1.91986 13.4565 2.1252 13.4565 2.5432V5.10253C13.4565 6.1732 14.5932 7.06053 15.9774 7.06053C16.8482 7.06786 18.0582 7.06786 19.094 7.06786C19.6165 7.06786 19.8915 6.57653 19.5249 6.2832C18.2049 5.21986 15.8399 3.30586 14.4832 2.22053Z" fill="white"/>
<path d="M18.7915 8.07241H16.1423C13.9698 8.07241 12.2007 6.65707 12.2007 4.91907V2.79974C12.2007 2.39641 11.7882 2.06641 11.284 2.06641H7.39734C4.574 2.06641 2.2915 3.53307 2.2915 6.15107V12.6484C2.2915 15.2664 4.574 16.7331 7.39734 16.7331H14.6023C17.4257 16.7331 19.7082 15.2664 19.7082 12.6484V8.80574C19.7082 8.40241 19.2957 8.07241 18.7915 8.07241ZM10.5415 13.6164H6.87484C6.499 13.6164 6.18734 13.3671 6.18734 13.0664C6.18734 12.7657 6.499 12.5164 6.87484 12.5164H10.5415C10.9173 12.5164 11.229 12.7657 11.229 13.0664C11.229 13.3671 10.9173 13.6164 10.5415 13.6164ZM12.3748 10.6831H6.87484C6.499 10.6831 6.18734 10.4337 6.18734 10.1331C6.18734 9.83241 6.499 9.58307 6.87484 9.58307H12.3748C12.7507 9.58307 13.0623 9.83241 13.0623 10.1331C13.0623 10.4337 12.7507 10.6831 12.3748 10.6831Z" fill="white"/>
</svg>
