<svg width="40" height="40" viewBox="0 0 40 40" fill="none" xmlns="http://www.w3.org/2000/svg">
<rect opacity="0.05" width="40" height="40" rx="6" fill="#0061FF"/>
<path d="M19.1666 11.667H17.5C13.3333 11.667 11.6666 13.3337 11.6666 17.5003V22.5003C11.6666 26.667 13.3333 28.3337 17.5 28.3337H22.5C26.6666 28.3337 28.3333 26.667 28.3333 22.5003V20.8337" stroke="#0061FF" stroke-width="1.5" stroke-linecap="round" stroke-linejoin="round"/>
<path d="M23.3667 12.5164L16.8 19.0831C16.55 19.3331 16.3 19.8247 16.25 20.1831L15.8917 22.6914C15.7584 23.5997 16.4 24.2331 17.3084 24.1081L19.8167 23.7497C20.1667 23.6997 20.6584 23.4497 20.9167 23.1997L27.4834 16.6331C28.6167 15.4997 29.15 14.1831 27.4834 12.5164C25.8167 10.8497 24.5 11.3831 23.3667 12.5164Z" stroke="#0061FF" stroke-width="1.5" stroke-miterlimit="10" stroke-linecap="round" stroke-linejoin="round"/>
<path d="M22.425 13.458C22.9834 15.4497 24.5417 17.008 26.5417 17.5747" stroke="#0061FF" stroke-width="1.5" stroke-miterlimit="10" stroke-linecap="round" stroke-linejoin="round"/>
</svg>
