<svg width="72" height="72" viewBox="0 0 72 72" fill="none" xmlns="http://www.w3.org/2000/svg">
<rect opacity="0.15" width="72" height="72" rx="14.4" fill="#FF7878"/>
<path d="M34.1248 21.675C35.1748 20.79 36.8698 20.79 37.8898 21.675L40.2598 23.7C40.7098 24.075 41.5648 24.39 42.1648 24.39H44.7148C46.3048 24.39 47.6098 25.695 47.6098 27.285V29.835C47.6098 30.435 47.9248 31.275 48.2998 31.725L50.3248 34.095C51.2098 35.145 51.2098 36.84 50.3248 37.86L48.2998 40.23C47.9248 40.68 47.6098 41.52 47.6098 42.12V44.67C47.6098 46.26 46.3048 47.565 44.7148 47.565H42.1648C41.5648 47.565 40.7248 47.88 40.2748 48.255L37.9048 50.28C36.8548 51.165 35.1598 51.165 34.1398 50.28L31.7698 48.255C31.3198 47.88 30.4648 47.565 29.8798 47.565H27.2548C25.6648 47.565 24.3598 46.26 24.3598 44.67V42.105C24.3598 41.52 24.0598 40.665 23.6848 40.23L21.6598 37.845C20.7898 36.81 20.7898 35.13 21.6598 34.095L23.6848 31.71C24.0598 31.26 24.3598 30.42 24.3598 29.835V27.3C24.3598 25.71 25.6648 24.405 27.2548 24.405H29.8498C30.4498 24.405 31.2898 24.09 31.7398 23.715L34.1248 21.675Z" stroke="#FF7878" stroke-width="2.5" stroke-linecap="round" stroke-linejoin="round"/>
<path d="M36 30.1943V37.4393" stroke="#FF7878" stroke-width="2.5" stroke-linecap="round" stroke-linejoin="round"/>
<path d="M35.9917 42H36.0052" stroke="#FF7878" stroke-width="2.5" stroke-linecap="round" stroke-linejoin="round"/>
</svg>
