<svg width="20" height="20" viewBox="0 0 20 20" fill="none" xmlns="http://www.w3.org/2000/svg">
<path d="M16.5833 11.25H3.41663C2.16663 11.25 1.66663 11.7833 1.66663 13.1083V16.475C1.66663 17.8 2.16663 18.3333 3.41663 18.3333H16.5833C17.8333 18.3333 18.3333 17.8 18.3333 16.475V13.1083C18.3333 11.7833 17.8333 11.25 16.5833 11.25Z" stroke="white" stroke-width="1.3" stroke-linecap="round" stroke-linejoin="round"/>
<path d="M10.75 1.6665H3.41663C2.16663 1.6665 1.66663 2.19984 1.66663 3.52484V6.8915C1.66663 8.2165 2.16663 8.74984 3.41663 8.74984H10.75C12 8.74984 12.5 8.2165 12.5 6.8915V3.52484C12.5 2.19984 12 1.6665 10.75 1.6665Z" stroke="white" stroke-width="1.3" stroke-linecap="round" stroke-linejoin="round"/>
</svg>
