<svg width="22" height="23" viewBox="0 0 22 23" fill="none" xmlns="http://www.w3.org/2000/svg">
<path d="M4.87566 13.6088L4.10988 16.4324L1.31093 16.4909C0.474461 14.9585 0 13.2053 0 11.3422C0 9.5406 0.443609 7.84166 1.22994 6.3457H1.23054L3.72238 6.79692L4.81396 9.24331C4.5855 9.90116 4.46097 10.6074 4.46097 11.3422C4.46106 12.1397 4.60732 12.9039 4.87566 13.6088Z" fill="#FBBB00"/>
<path d="M21.8077 9.3125C21.934 9.96972 21.9999 10.6485 21.9999 11.3421C21.9999 12.12 21.9171 12.8787 21.7593 13.6106C21.2239 16.101 19.8247 18.2757 17.8864 19.8147L17.8858 19.8141L14.7472 19.6559L14.303 16.9171C15.5891 16.1721 16.5942 15.0062 17.1237 13.6106H11.2417V9.3125H17.2095H21.8077Z" fill="#518EF8"/>
<path d="M17.886 19.8142L17.8866 19.8148C16.0015 21.3113 13.6068 22.2068 11.0001 22.2068C6.81104 22.2068 3.16896 19.8942 1.31104 16.491L4.87577 13.6089C5.80471 16.0576 8.1963 17.8007 11.0001 17.8007C12.2052 17.8007 13.3343 17.4789 14.3031 16.9172L17.886 19.8142Z" fill="#28B446"/>
<path d="M18.0213 2.97876L14.4578 5.86024C13.4551 5.24121 12.2699 4.88362 11 4.88362C8.13278 4.88362 5.69645 6.70669 4.81405 9.24318L1.23058 6.34558H1.22998C3.06071 2.85938 6.74871 0.477539 11 0.477539C13.669 0.477539 16.1162 1.41656 18.0213 2.97876Z" fill="#F14336"/>
</svg>
