<svg width="40" height="40" viewBox="0 0 40 40" fill="none" xmlns="http://www.w3.org/2000/svg">
<rect opacity="0.05" width="40" height="40" rx="6" fill="#0061FF"/>
<path d="M16.8498 17.328C16.8498 17.6869 17.1409 17.978 17.4998 17.978C17.8588 17.978 18.1498 17.6869 18.1498 17.328H16.8498ZM19.5115 21.763C19.5115 22.1219 19.8025 22.413 20.1615 22.413C20.5205 22.413 20.8115 22.1219 20.8115 21.763H19.5115ZM19.6613 24.071C19.4315 24.3468 19.4688 24.7567 19.7446 24.9865C20.0204 25.2163 20.4302 25.179 20.66 24.9032L19.6613 24.071ZM20.6684 24.8932C20.8982 24.6174 20.8609 24.2076 20.5851 23.9778C20.3093 23.748 19.8995 23.7852 19.6696 24.061L20.6684 24.8932ZM18.1498 17.328C18.1498 16.7392 18.3736 16.3397 18.6826 16.0775C19.0057 15.8034 19.4598 15.6498 19.939 15.6498C20.4182 15.6498 20.8723 15.8034 21.1954 16.0775C21.5044 16.3397 21.7282 16.7392 21.7282 17.328H23.0282C23.0282 16.3647 22.6421 15.6001 22.0364 15.0862C21.4449 14.5843 20.6793 14.3498 19.939 14.3498C19.1987 14.3498 18.4331 14.5843 17.8416 15.0862C17.2359 15.6001 16.8498 16.3647 16.8498 17.328H18.1498ZM21.7282 17.328C21.7282 17.7603 21.6242 18.0219 21.4909 18.222C21.3387 18.4504 21.1355 18.6257 20.8349 18.8965C20.5532 19.1502 20.206 19.4733 19.9422 19.9395C19.672 20.417 19.5115 21.0012 19.5115 21.763H20.8115C20.8115 21.1948 20.9281 20.8368 21.0736 20.5798C21.2254 20.3115 21.4323 20.1079 21.7048 19.8625C21.9583 19.6342 22.3093 19.3382 22.5728 18.9428C22.8551 18.5191 23.0282 18.0044 23.0282 17.328H21.7282ZM20.66 24.9032L20.6684 24.8932L19.6696 24.061L19.6613 24.071L20.66 24.9032ZM27.6832 19.9998C27.6832 24.2432 24.2432 27.6832 19.9998 27.6832V28.9832C24.9612 28.9832 28.9832 24.9612 28.9832 19.9998H27.6832ZM19.9998 27.6832C15.7564 27.6832 12.3165 24.2432 12.3165 19.9998H11.0165C11.0165 24.9612 15.0385 28.9832 19.9998 28.9832V27.6832ZM12.3165 19.9998C12.3165 15.7564 15.7564 12.3165 19.9998 12.3165V11.0165C15.0385 11.0165 11.0165 15.0385 11.0165 19.9998H12.3165ZM19.9998 12.3165C24.2432 12.3165 27.6832 15.7564 27.6832 19.9998H28.9832C28.9832 15.0385 24.9612 11.0165 19.9998 11.0165V12.3165Z" fill="#0061FF"/>
</svg>
