<svg width="40" height="40" viewBox="0 0 40 40" fill="none" xmlns="http://www.w3.org/2000/svg">
<rect opacity="0.05" width="40" height="40" rx="6" fill="#0061FF"/>
<path d="M16.6667 11.6665V14.1665" stroke="#0061FF" stroke-width="1.3" stroke-miterlimit="10" stroke-linecap="round" stroke-linejoin="round"/>
<path d="M23.3333 11.6665V14.1665" stroke="#0061FF" stroke-width="1.3" stroke-miterlimit="10" stroke-linecap="round" stroke-linejoin="round"/>
<path d="M12.9167 17.5747H27.0833" stroke="#0061FF" stroke-width="1.3" stroke-miterlimit="10" stroke-linecap="round" stroke-linejoin="round"/>
<path d="M27.5 17.0832V24.1665C27.5 26.6665 26.25 28.3332 23.3333 28.3332H16.6667C13.75 28.3332 12.5 26.6665 12.5 24.1665V17.0832C12.5 14.5832 13.75 12.9165 16.6667 12.9165H23.3333C26.25 12.9165 27.5 14.5832 27.5 17.0832Z" stroke="#0061FF" stroke-width="1.3" stroke-miterlimit="10" stroke-linecap="round" stroke-linejoin="round"/>
<path d="M23.0789 21.4167H23.0864" stroke="#0061FF" stroke-width="1.5" stroke-linecap="round" stroke-linejoin="round"/>
<path d="M23.0789 23.9167H23.0864" stroke="#0061FF" stroke-width="1.5" stroke-linecap="round" stroke-linejoin="round"/>
<path d="M19.9962 21.4167H20.0037" stroke="#0061FF" stroke-width="1.5" stroke-linecap="round" stroke-linejoin="round"/>
<path d="M19.9962 23.9167H20.0037" stroke="#0061FF" stroke-width="1.5" stroke-linecap="round" stroke-linejoin="round"/>
<path d="M16.9119 21.4167H16.9194" stroke="#0061FF" stroke-width="1.5" stroke-linecap="round" stroke-linejoin="round"/>
<path d="M16.9119 23.9167H16.9194" stroke="#0061FF" stroke-width="1.5" stroke-linecap="round" stroke-linejoin="round"/>
</svg>
