<svg width="22" height="22" viewBox="0 0 22 22" fill="none" xmlns="http://www.w3.org/2000/svg">
<path d="M2.52115 17.0961C2.14532 17.0961 1.83366 16.7844 1.83366 16.4086V11.1836C1.78782 8.69939 2.71366 6.35273 4.43699 4.59273C6.16032 2.84189 8.47032 1.87939 10.9545 1.87939C16.0328 1.87939 20.167 6.01356 20.167 11.0919V16.3169C20.167 16.6927 19.8553 17.0044 19.4795 17.0044C19.1037 17.0044 18.792 16.6927 18.792 16.3169V11.0919C18.792 6.77439 15.2812 3.25439 10.9545 3.25439C8.83699 3.25439 6.87532 4.07023 5.41782 5.55523C3.95115 7.0494 3.17199 9.03856 3.20865 11.1652V16.3994C3.20865 16.7844 2.90615 17.0961 2.52115 17.0961Z" fill="white"/>
<path d="M5.44467 11.4126H5.32551C3.40051 11.4126 1.83301 12.9801 1.83301 14.9051V16.6284C1.83301 18.5534 3.40051 20.1209 5.32551 20.1209H5.44467C7.36967 20.1209 8.93717 18.5534 8.93717 16.6284V14.9051C8.93717 12.9801 7.36967 11.4126 5.44467 11.4126Z" fill="white"/>
<path d="M16.6742 11.4126H16.555C14.63 11.4126 13.0625 12.9801 13.0625 14.9051V16.6284C13.0625 18.5534 14.63 20.1209 16.555 20.1209H16.6742C18.5992 20.1209 20.1667 18.5534 20.1667 16.6284V14.9051C20.1667 12.9801 18.5992 11.4126 16.6742 11.4126Z" fill="white"/>
</svg>
