<svg width="20" height="18" viewBox="0 0 20 18" fill="none" xmlns="http://www.w3.org/2000/svg">
<path d="M14.583 0.227539H5.41634C2.66634 0.227539 0.833008 2.06087 0.833008 4.81087V10.3109C0.833008 13.0609 2.66634 14.8942 5.41634 14.8942V16.8467C5.41634 17.58 6.23217 18.02 6.83717 17.6075L10.9163 14.8942H14.583C17.333 14.8942 19.1663 13.0609 19.1663 10.3109V4.81087C19.1663 2.06087 17.333 0.227539 14.583 0.227539ZM9.99967 11.3834C9.61467 11.3834 9.31217 11.0717 9.31217 10.6959C9.31217 10.32 9.61467 10.0084 9.99967 10.0084C10.3847 10.0084 10.6872 10.32 10.6872 10.6959C10.6872 11.0717 10.3847 11.3834 9.99967 11.3834ZM11.1547 7.57921C10.7972 7.81754 10.6872 7.97337 10.6872 8.23004V8.42254C10.6872 8.79837 10.3755 9.11004 9.99967 9.11004C9.62384 9.11004 9.31217 8.79837 9.31217 8.42254V8.23004C9.31217 7.16671 10.0913 6.64421 10.3847 6.44254C10.7238 6.21337 10.8338 6.05754 10.8338 5.81921C10.8338 5.36087 10.458 4.98504 9.99967 4.98504C9.54134 4.98504 9.16551 5.36087 9.16551 5.81921C9.16551 6.19504 8.85384 6.50671 8.47801 6.50671C8.10217 6.50671 7.79051 6.19504 7.79051 5.81921C7.79051 4.60004 8.78051 3.61004 9.99967 3.61004C11.2188 3.61004 12.2088 4.60004 12.2088 5.81921C12.2088 6.86421 11.4388 7.38671 11.1547 7.57921Z" fill="white"/>
</svg>
