<svg width="20" height="20" viewBox="0 0 20 20" fill="none" xmlns="http://www.w3.org/2000/svg">
<path d="M9.85441 0.00119131C7.87681 0.0300241 5.95217 0.644637 4.32387 1.76731C2.69557 2.88998 1.43675 4.47028 0.70659 6.30838C-0.0235676 8.14649 -0.192268 10.1598 0.221822 12.0938C0.635912 14.0278 1.61419 15.7955 3.03296 17.1735C4.45172 18.5515 6.24725 19.4778 8.19248 19.8354C10.1377 20.1929 12.1453 19.9656 13.9613 19.1822C15.7773 18.3987 17.3203 17.0944 18.395 15.434C19.4697 13.7737 20.028 11.8319 19.9991 9.85435C19.98 8.54127 19.7024 7.24481 19.1822 6.03901C18.6621 4.8332 17.9095 3.74167 16.9674 2.82671C16.0254 1.91176 14.9124 1.19132 13.6919 0.706514C12.4715 0.221709 11.1675 -0.0179595 9.85441 0.00119131ZM10.0732 15.0058C9.87541 15.0087 9.68124 14.9529 9.51521 14.8454C9.34917 14.7379 9.21874 14.5836 9.14039 14.402C9.06205 14.2204 9.03932 14.0197 9.07507 13.8252C9.11082 13.6306 9.20346 13.4511 9.34126 13.3092C9.47905 13.1673 9.65583 13.0695 9.84923 13.0281C10.0426 12.9867 10.244 13.0036 10.4278 13.0766C10.6116 13.1496 10.7696 13.2755 10.8819 13.4383C10.9941 13.6011 11.0556 13.7936 11.0585 13.9914C11.0624 14.2565 10.9607 14.5124 10.7759 14.7027C10.5912 14.8929 10.3384 15.002 10.0732 15.0058ZM11.012 10.8011L11.0147 10.9854C11.0185 11.2506 10.9169 11.5065 10.7321 11.6967C10.5473 11.887 10.2945 11.996 10.0293 11.9999C9.76416 12.0038 9.5083 11.9021 9.31805 11.7174C9.1278 11.5326 9.01874 11.2798 9.01488 11.0146L9.0003 10.0147C8.99831 9.88338 9.02222 9.75295 9.07068 9.63087C9.11913 9.50879 9.19117 9.39746 9.28268 9.30324C9.37419 9.20902 9.48337 9.13377 9.60399 9.08177C9.7246 9.02978 9.85428 9.00207 9.98561 9.00023C10.1612 8.99757 10.3329 8.94874 10.4836 8.85866C10.6343 8.76857 10.7586 8.6404 10.844 8.48703C10.9295 8.33367 10.973 8.16051 10.9703 7.98497C10.9676 7.80943 10.9188 7.6377 10.8286 7.48703C10.7385 7.33636 10.6103 7.21208 10.4569 7.12667C10.3036 7.04126 10.1304 6.99773 9.95486 7.00047C9.77932 7.00321 9.60759 7.05211 9.45695 7.14226C9.3063 7.23241 9.18204 7.36063 9.09666 7.51404C8.96715 7.74542 8.75102 7.91588 8.49583 7.98792C8.24063 8.05995 7.96727 8.02766 7.73588 7.89815C7.5045 7.76864 7.33404 7.55251 7.262 7.29731C7.18996 7.04212 7.22226 6.76876 7.35177 6.53737C7.58602 6.11441 7.91912 5.75441 8.32265 5.48807C8.72617 5.22173 9.18814 5.05697 9.66913 5.00783C10.1501 4.9587 10.6359 5.02667 11.0849 5.20592C11.5339 5.38518 11.9329 5.6704 12.2479 6.03726C12.5628 6.40412 12.7843 6.84173 12.8935 7.31273C13.0027 7.78374 12.9963 8.27417 12.8748 8.74217C12.7534 9.21017 12.5206 9.64185 12.1962 10.0004C11.8718 10.3589 11.4655 10.6336 11.012 10.8011Z" fill="white"/>
</svg>
