<svg width="38" height="38" viewBox="0 0 38 38" fill="none" xmlns="http://www.w3.org/2000/svg">
<rect opacity="0.1" width="38" height="38" rx="10" fill="white"/>
<path d="M19 25.375H15.25C13 25.375 11.5 24.25 11.5 21.625V16.375C11.5 13.75 13 12.625 15.25 12.625H22.75C25 12.625 26.5 13.75 26.5 16.375V18.625" stroke="white" stroke-width="1.3" stroke-miterlimit="10" stroke-linecap="round" stroke-linejoin="round"/>
<path d="M22.75 16.75L20.4025 18.625C19.63 19.24 18.3625 19.24 17.59 18.625L15.25 16.75" stroke="white" stroke-width="1.3" stroke-miterlimit="10" stroke-linecap="round" stroke-linejoin="round"/>
<path d="M24.4073 21.0777L21.7523 23.7327C21.6473 23.8377 21.5498 24.0327 21.5273 24.1752L21.3848 25.1877C21.3323 25.5552 21.5873 25.8102 21.9548 25.7577L22.9673 25.6152C23.1098 25.5927 23.3123 25.4952 23.4098 25.3902L26.0648 22.7352C26.5223 22.2777 26.7398 21.7452 26.0648 21.0702C25.3973 20.4027 24.8648 20.6202 24.4073 21.0777Z" stroke="white" stroke-miterlimit="10" stroke-linecap="round" stroke-linejoin="round"/>
<path d="M24.0244 21.46C24.2494 22.27 24.8794 22.9 25.6894 23.125" stroke="white" stroke-miterlimit="10" stroke-linecap="round" stroke-linejoin="round"/>
</svg>
