<svg width="50" height="50" viewBox="0 0 50 50" fill="none" xmlns="http://www.w3.org/2000/svg">
<rect opacity="0.1" width="50" height="50" rx="10" fill="#7452FF"/>
<path d="M29.4335 13.5784C28.9552 13.1001 28.1268 13.4267 28.1268 14.0917V18.1634C28.1268 19.8667 29.5735 21.2784 31.3352 21.2784C32.4435 21.2901 33.9835 21.2901 35.3018 21.2901C35.9668 21.2901 36.3168 20.5084 35.8502 20.0417C34.1702 18.3501 31.1602 15.3051 29.4335 13.5784Z" fill="#7452FF"/>
<path d="M34.9166 22.8885H31.545C28.78 22.8885 26.5283 20.6368 26.5283 17.8718V14.5002C26.5283 13.8585 26.0033 13.3335 25.3616 13.3335H20.415C16.8216 13.3335 13.9166 15.6668 13.9166 19.8318V30.1685C13.9166 34.3335 16.8216 36.6668 20.415 36.6668H29.585C33.1783 36.6668 36.0833 34.3335 36.0833 30.1685V24.0552C36.0833 23.4135 35.5583 22.8885 34.9166 22.8885ZM24.4166 31.7085H19.75C19.2716 31.7085 18.875 31.3118 18.875 30.8335C18.875 30.3552 19.2716 29.9585 19.75 29.9585H24.4166C24.895 29.9585 25.2916 30.3552 25.2916 30.8335C25.2916 31.3118 24.895 31.7085 24.4166 31.7085ZM26.75 27.0418H19.75C19.2716 27.0418 18.875 26.6452 18.875 26.1668C18.875 25.6885 19.2716 25.2918 19.75 25.2918H26.75C27.2283 25.2918 27.625 25.6885 27.625 26.1668C27.625 26.6452 27.2283 27.0418 26.75 27.0418Z" fill="#7452FF"/>
</svg>
