<svg width="16" height="20" viewBox="0 0 16 20" fill="none" xmlns="http://www.w3.org/2000/svg">
<path d="M13.9947 2.77685L8.95307 0.888516C8.43057 0.696016 7.57807 0.696016 7.05557 0.888516L2.01391 2.77685C1.04224 3.14352 0.253906 4.28018 0.253906 5.31602V12.741C0.253906 13.4835 0.73974 14.4643 1.33557 14.9043L6.37724 18.6718C7.26641 19.341 8.72391 19.341 9.61307 18.6718L14.6547 14.9043C15.2506 14.4552 15.7364 13.4835 15.7364 12.741V5.31602C15.7456 4.28018 14.9572 3.14352 13.9947 2.77685ZM11.1897 7.91018L7.24807 11.8518C7.11057 11.9893 6.93641 12.0535 6.76224 12.0535C6.58807 12.0535 6.41391 11.9893 6.27641 11.8518L4.80974 10.3668C4.54391 10.101 4.54391 9.66102 4.80974 9.39518C5.07557 9.12935 5.51557 9.12935 5.78141 9.39518L6.77141 10.3852L10.2272 6.92935C10.4931 6.66352 10.9331 6.66352 11.1989 6.92935C11.4647 7.19518 11.4647 7.64435 11.1897 7.91018Z" fill="white"/>
</svg>
