<svg width="72" height="72" viewBox="0 0 72 72" fill="none" xmlns="http://www.w3.org/2000/svg">
<rect opacity="0.15" width="72" height="72" rx="14.4" fill="#FF7878"/>
<path d="M36 21C27.735 21 21 27.735 21 36C21 44.265 27.735 51 36 51C44.265 51 51 44.265 51 36C51 27.735 44.265 21 36 21ZM34.875 30C34.875 29.385 35.385 28.875 36 28.875C36.615 28.875 37.125 29.385 37.125 30V37.5C37.125 38.115 36.615 38.625 36 38.625C35.385 38.625 34.875 38.115 34.875 37.5V30ZM37.38 42.57C37.305 42.765 37.2 42.915 37.065 43.065C36.915 43.2 36.75 43.305 36.57 43.38C36.39 43.455 36.195 43.5 36 43.5C35.805 43.5 35.61 43.455 35.43 43.38C35.25 43.305 35.085 43.2 34.935 43.065C34.8 42.915 34.695 42.765 34.62 42.57C34.545 42.39 34.5 42.195 34.5 42C34.5 41.805 34.545 41.61 34.62 41.43C34.695 41.25 34.8 41.085 34.935 40.935C35.085 40.8 35.25 40.695 35.43 40.62C35.79 40.47 36.21 40.47 36.57 40.62C36.75 40.695 36.915 40.8 37.065 40.935C37.2 41.085 37.305 41.25 37.38 41.43C37.455 41.61 37.5 41.805 37.5 42C37.5 42.195 37.455 42.39 37.38 42.57Z" fill="#FF7878"/>
</svg>
