<svg width="20" height="20" viewBox="0 0 20 20" fill="none" xmlns="http://www.w3.org/2000/svg">
<path d="M13.8405 0.833496H6.15884C2.82217 0.833496 0.833008 2.82266 0.833008 6.15933V13.841C0.833008 17.1777 2.82217 19.1668 6.15884 19.1668H13.8405C17.1772 19.1668 19.1663 17.1777 19.1663 13.841V6.15933C19.1663 2.82266 17.1772 0.833496 13.8405 0.833496ZM8.13884 12.6585L6.07634 14.721C5.93884 14.8585 5.76467 14.9227 5.59051 14.9227C5.41634 14.9227 5.23301 14.8585 5.10467 14.721L4.41717 14.0335C4.14217 13.7677 4.14217 13.3277 4.41717 13.0618C4.68301 12.796 5.11384 12.796 5.38884 13.0618L5.59051 13.2635L7.16717 11.6868C7.43301 11.421 7.86384 11.421 8.13884 11.6868C8.40467 11.9527 8.40467 12.3927 8.13884 12.6585ZM8.13884 6.24183L6.07634 8.30433C5.93884 8.44183 5.76467 8.506 5.59051 8.506C5.41634 8.506 5.23301 8.44183 5.10467 8.30433L4.41717 7.61683C4.14217 7.351 4.14217 6.911 4.41717 6.64516C4.68301 6.37933 5.11384 6.37933 5.38884 6.64516L5.59051 6.84683L7.16717 5.27016C7.43301 5.00433 7.86384 5.00433 8.13884 5.27016C8.40467 5.536 8.40467 5.976 8.13884 6.24183ZM15.0963 14.2352H10.2838C9.90801 14.2352 9.59634 13.9235 9.59634 13.5477C9.59634 13.1718 9.90801 12.8602 10.2838 12.8602H15.0963C15.4813 12.8602 15.7838 13.1718 15.7838 13.5477C15.7838 13.9235 15.4813 14.2352 15.0963 14.2352ZM15.0963 7.8185H10.2838C9.90801 7.8185 9.59634 7.50683 9.59634 7.131C9.59634 6.75516 9.90801 6.4435 10.2838 6.4435H15.0963C15.4813 6.4435 15.7838 6.75516 15.7838 7.131C15.7838 7.50683 15.4813 7.8185 15.0963 7.8185Z" fill="white"/>
</svg>
