<svg width="40" height="40" viewBox="0 0 40 40" fill="none" xmlns="http://www.w3.org/2000/svg">
<rect opacity="0.05" width="40" height="40" rx="6" fill="#0061FF"/>
<mask id="path-2-outside-1_401_2594" maskUnits="userSpaceOnUse" x="11.1875" y="10.0625" width="17" height="19" fill="black">
<rect fill="white" x="11.1875" y="10.0625" width="17" height="19"/>
<path d="M22.9688 28.9375C22.8704 28.9375 22.7745 28.9065 22.6947 28.849C22.6149 28.7915 22.5552 28.7103 22.5241 28.617C22.4929 28.5236 22.492 28.4229 22.5213 28.329C22.5507 28.2351 22.6088 28.1528 22.6875 28.0938C23.1471 27.7609 23.4886 27.2902 23.6625 26.75H22.6562C22.5319 26.75 22.4127 26.7006 22.3248 26.6127C22.2369 26.5248 22.1875 26.4056 22.1875 26.2813C22.1875 26.1569 22.2369 26.0377 22.3248 25.9498C22.4127 25.8619 22.5319 25.8125 22.6562 25.8125H24.2188C24.3431 25.8125 24.4623 25.8619 24.5502 25.9498C24.6381 26.0377 24.6875 26.1569 24.6875 26.2813C24.6534 26.7884 24.5067 27.2815 24.2581 27.7248C24.0094 28.1681 23.665 28.5503 23.25 28.8438C23.1687 28.9042 23.0701 28.9371 22.9688 28.9375ZM26.0938 28.9375C25.9954 28.9375 25.8995 28.9065 25.8197 28.849C25.7399 28.7915 25.6802 28.7103 25.6491 28.617C25.6179 28.5236 25.617 28.4229 25.6463 28.329C25.6757 28.2351 25.7338 28.1528 25.8125 28.0938C26.2721 27.7609 26.6136 27.2902 26.7875 26.75H25.7812C25.6569 26.75 25.5377 26.7006 25.4498 26.6127C25.3619 26.5248 25.3125 26.4056 25.3125 26.2813C25.3125 26.1569 25.3619 26.0377 25.4498 25.9498C25.5377 25.8619 25.6569 25.8125 25.7812 25.8125H27.3438C27.4681 25.8125 27.5873 25.8619 27.6752 25.9498C27.7631 26.0377 27.8125 26.1569 27.8125 26.2813C27.7784 26.7884 27.6317 27.2815 27.3831 27.7248C27.1344 28.1681 26.79 28.5503 26.375 28.8438C26.2937 28.9042 26.1951 28.9371 26.0938 28.9375ZM17.3438 14.1875H15.7812C15.6569 14.1875 15.5377 14.1381 15.4498 14.0502C15.3619 13.9623 15.3125 13.8431 15.3125 13.7188C15.3466 13.2116 15.4933 12.7185 15.7419 12.2752C15.9906 11.8319 16.335 11.4497 16.75 11.1563C16.8495 11.0817 16.9745 11.0496 17.0975 11.0672C17.2206 11.0848 17.3317 11.1505 17.4062 11.25C17.4808 11.3495 17.5129 11.4745 17.4953 11.5975C17.4777 11.7206 17.412 11.8317 17.3125 11.9063C16.8529 12.2391 16.5114 12.7098 16.3375 13.25H17.3438C17.4681 13.25 17.5873 13.2994 17.6752 13.3873C17.7631 13.4752 17.8125 13.5944 17.8125 13.7188C17.8125 13.8431 17.7631 13.9623 17.6752 14.0502C17.5873 14.1381 17.4681 14.1875 17.3438 14.1875ZM14.2188 14.1875H12.6562C12.5319 14.1875 12.4127 14.1381 12.3248 14.0502C12.2369 13.9623 12.1875 13.8431 12.1875 13.7188C12.2216 13.2116 12.3683 12.7185 12.6169 12.2752C12.8656 11.8319 13.21 11.4497 13.625 11.1563C13.7245 11.0817 13.8495 11.0496 13.9725 11.0672C14.0956 11.0848 14.2067 11.1505 14.2812 11.25C14.3558 11.3495 14.3879 11.4745 14.3703 11.5975C14.3527 11.7206 14.287 11.8317 14.1875 11.9063C13.7279 12.2391 13.3864 12.7098 13.2125 13.25H14.2188C14.3431 13.25 14.4623 13.2994 14.5502 13.3873C14.6381 13.4752 14.6875 13.5944 14.6875 13.7188C14.6875 13.8431 14.6381 13.9623 14.5502 14.0502C14.4623 14.1381 14.3431 14.1875 14.2188 14.1875ZM27.3438 14.1875H19.5312C19.4069 14.1875 19.2877 14.1381 19.1998 14.0502C19.1119 13.9623 19.0625 13.8431 19.0625 13.7188C19.0625 13.5944 19.1119 13.4752 19.1998 13.3873C19.2877 13.2994 19.4069 13.25 19.5312 13.25H27.3438C27.4681 13.25 27.5873 13.2994 27.6752 13.3873C27.7631 13.4752 27.8125 13.5944 27.8125 13.7188C27.8125 13.8431 27.7631 13.9623 27.6752 14.0502C27.5873 14.1381 27.4681 14.1875 27.3438 14.1875ZM27.3438 18.375H17.7281C17.6038 18.375 17.4846 18.3256 17.3967 18.2377C17.3088 18.1498 17.2594 18.0306 17.2594 17.9063C17.2594 17.7819 17.3088 17.6627 17.3967 17.5748C17.4846 17.4869 17.6038 17.4375 17.7281 17.4375H27.3438C27.4681 17.4375 27.5873 17.4869 27.6752 17.5748C27.7631 17.6627 27.8125 17.7819 27.8125 17.9063C27.8125 18.0306 27.7631 18.1498 27.6752 18.2377C27.5873 18.3256 27.4681 18.375 27.3438 18.375ZM15.4719 18.375H12.6594C12.5351 18.375 12.4158 18.3256 12.3279 18.2377C12.24 18.1498 12.1906 18.0306 12.1906 17.9063C12.1906 17.7819 12.24 17.6627 12.3279 17.5748C12.4158 17.4869 12.5351 17.4375 12.6594 17.4375H15.4719C15.5962 17.4375 15.7154 17.4869 15.8033 17.5748C15.8912 17.6627 15.9406 17.7819 15.9406 17.9063C15.9406 18.0306 15.8912 18.1498 15.8033 18.2377C15.7154 18.3256 15.5962 18.375 15.4719 18.375ZM27.3438 22.5625H25.1562C25.0319 22.5625 24.9127 22.5131 24.8248 22.4252C24.7369 22.3373 24.6875 22.2181 24.6875 22.0938C24.6875 21.9694 24.7369 21.8502 24.8248 21.7623C24.9127 21.6744 25.0319 21.625 25.1562 21.625H27.3438C27.4681 21.625 27.5873 21.6744 27.6752 21.7623C27.7631 21.8502 27.8125 21.9694 27.8125 22.0938C27.8125 22.2181 27.7631 22.3373 27.6752 22.4252C27.5873 22.5131 27.4681 22.5625 27.3438 22.5625ZM22.8875 22.5625H12.6562C12.5319 22.5625 12.4127 22.5131 12.3248 22.4252C12.2369 22.3373 12.1875 22.2181 12.1875 22.0938C12.1875 21.9694 12.2369 21.8502 12.3248 21.7623C12.4127 21.6744 12.5319 21.625 12.6562 21.625H22.8875C23.0118 21.625 23.131 21.6744 23.219 21.7623C23.3069 21.8502 23.3563 21.9694 23.3563 22.0938C23.3563 22.2181 23.3069 22.3373 23.219 22.4252C23.131 22.5131 23.0118 22.5625 22.8875 22.5625ZM20.4688 26.75H12.6562C12.5319 26.75 12.4127 26.7006 12.3248 26.6127C12.2369 26.5248 12.1875 26.4056 12.1875 26.2813C12.1875 26.1569 12.2369 26.0377 12.3248 25.9498C12.4127 25.8619 12.5319 25.8125 12.6562 25.8125H20.4688C20.5931 25.8125 20.7123 25.8619 20.8002 25.9498C20.8881 26.0377 20.9375 26.1569 20.9375 26.2813C20.9375 26.4056 20.8881 26.5248 20.8002 26.6127C20.7123 26.7006 20.5931 26.75 20.4688 26.75Z"/>
</mask>
<path d="M22.9688 28.9375C22.8704 28.9375 22.7745 28.9065 22.6947 28.849C22.6149 28.7915 22.5552 28.7103 22.5241 28.617C22.4929 28.5236 22.492 28.4229 22.5213 28.329C22.5507 28.2351 22.6088 28.1528 22.6875 28.0938C23.1471 27.7609 23.4886 27.2902 23.6625 26.75H22.6562C22.5319 26.75 22.4127 26.7006 22.3248 26.6127C22.2369 26.5248 22.1875 26.4056 22.1875 26.2813C22.1875 26.1569 22.2369 26.0377 22.3248 25.9498C22.4127 25.8619 22.5319 25.8125 22.6562 25.8125H24.2188C24.3431 25.8125 24.4623 25.8619 24.5502 25.9498C24.6381 26.0377 24.6875 26.1569 24.6875 26.2813C24.6534 26.7884 24.5067 27.2815 24.2581 27.7248C24.0094 28.1681 23.665 28.5503 23.25 28.8438C23.1687 28.9042 23.0701 28.9371 22.9688 28.9375ZM26.0938 28.9375C25.9954 28.9375 25.8995 28.9065 25.8197 28.849C25.7399 28.7915 25.6802 28.7103 25.6491 28.617C25.6179 28.5236 25.617 28.4229 25.6463 28.329C25.6757 28.2351 25.7338 28.1528 25.8125 28.0938C26.2721 27.7609 26.6136 27.2902 26.7875 26.75H25.7812C25.6569 26.75 25.5377 26.7006 25.4498 26.6127C25.3619 26.5248 25.3125 26.4056 25.3125 26.2813C25.3125 26.1569 25.3619 26.0377 25.4498 25.9498C25.5377 25.8619 25.6569 25.8125 25.7812 25.8125H27.3438C27.4681 25.8125 27.5873 25.8619 27.6752 25.9498C27.7631 26.0377 27.8125 26.1569 27.8125 26.2813C27.7784 26.7884 27.6317 27.2815 27.3831 27.7248C27.1344 28.1681 26.79 28.5503 26.375 28.8438C26.2937 28.9042 26.1951 28.9371 26.0938 28.9375ZM17.3438 14.1875H15.7812C15.6569 14.1875 15.5377 14.1381 15.4498 14.0502C15.3619 13.9623 15.3125 13.8431 15.3125 13.7188C15.3466 13.2116 15.4933 12.7185 15.7419 12.2752C15.9906 11.8319 16.335 11.4497 16.75 11.1563C16.8495 11.0817 16.9745 11.0496 17.0975 11.0672C17.2206 11.0848 17.3317 11.1505 17.4062 11.25C17.4808 11.3495 17.5129 11.4745 17.4953 11.5975C17.4777 11.7206 17.412 11.8317 17.3125 11.9063C16.8529 12.2391 16.5114 12.7098 16.3375 13.25H17.3438C17.4681 13.25 17.5873 13.2994 17.6752 13.3873C17.7631 13.4752 17.8125 13.5944 17.8125 13.7188C17.8125 13.8431 17.7631 13.9623 17.6752 14.0502C17.5873 14.1381 17.4681 14.1875 17.3438 14.1875ZM14.2188 14.1875H12.6562C12.5319 14.1875 12.4127 14.1381 12.3248 14.0502C12.2369 13.9623 12.1875 13.8431 12.1875 13.7188C12.2216 13.2116 12.3683 12.7185 12.6169 12.2752C12.8656 11.8319 13.21 11.4497 13.625 11.1563C13.7245 11.0817 13.8495 11.0496 13.9725 11.0672C14.0956 11.0848 14.2067 11.1505 14.2812 11.25C14.3558 11.3495 14.3879 11.4745 14.3703 11.5975C14.3527 11.7206 14.287 11.8317 14.1875 11.9063C13.7279 12.2391 13.3864 12.7098 13.2125 13.25H14.2188C14.3431 13.25 14.4623 13.2994 14.5502 13.3873C14.6381 13.4752 14.6875 13.5944 14.6875 13.7188C14.6875 13.8431 14.6381 13.9623 14.5502 14.0502C14.4623 14.1381 14.3431 14.1875 14.2188 14.1875ZM27.3438 14.1875H19.5312C19.4069 14.1875 19.2877 14.1381 19.1998 14.0502C19.1119 13.9623 19.0625 13.8431 19.0625 13.7188C19.0625 13.5944 19.1119 13.4752 19.1998 13.3873C19.2877 13.2994 19.4069 13.25 19.5312 13.25H27.3438C27.4681 13.25 27.5873 13.2994 27.6752 13.3873C27.7631 13.4752 27.8125 13.5944 27.8125 13.7188C27.8125 13.8431 27.7631 13.9623 27.6752 14.0502C27.5873 14.1381 27.4681 14.1875 27.3438 14.1875ZM27.3438 18.375H17.7281C17.6038 18.375 17.4846 18.3256 17.3967 18.2377C17.3088 18.1498 17.2594 18.0306 17.2594 17.9063C17.2594 17.7819 17.3088 17.6627 17.3967 17.5748C17.4846 17.4869 17.6038 17.4375 17.7281 17.4375H27.3438C27.4681 17.4375 27.5873 17.4869 27.6752 17.5748C27.7631 17.6627 27.8125 17.7819 27.8125 17.9063C27.8125 18.0306 27.7631 18.1498 27.6752 18.2377C27.5873 18.3256 27.4681 18.375 27.3438 18.375ZM15.4719 18.375H12.6594C12.5351 18.375 12.4158 18.3256 12.3279 18.2377C12.24 18.1498 12.1906 18.0306 12.1906 17.9063C12.1906 17.7819 12.24 17.6627 12.3279 17.5748C12.4158 17.4869 12.5351 17.4375 12.6594 17.4375H15.4719C15.5962 17.4375 15.7154 17.4869 15.8033 17.5748C15.8912 17.6627 15.9406 17.7819 15.9406 17.9063C15.9406 18.0306 15.8912 18.1498 15.8033 18.2377C15.7154 18.3256 15.5962 18.375 15.4719 18.375ZM27.3438 22.5625H25.1562C25.0319 22.5625 24.9127 22.5131 24.8248 22.4252C24.7369 22.3373 24.6875 22.2181 24.6875 22.0938C24.6875 21.9694 24.7369 21.8502 24.8248 21.7623C24.9127 21.6744 25.0319 21.625 25.1562 21.625H27.3438C27.4681 21.625 27.5873 21.6744 27.6752 21.7623C27.7631 21.8502 27.8125 21.9694 27.8125 22.0938C27.8125 22.2181 27.7631 22.3373 27.6752 22.4252C27.5873 22.5131 27.4681 22.5625 27.3438 22.5625ZM22.8875 22.5625H12.6562C12.5319 22.5625 12.4127 22.5131 12.3248 22.4252C12.2369 22.3373 12.1875 22.2181 12.1875 22.0938C12.1875 21.9694 12.2369 21.8502 12.3248 21.7623C12.4127 21.6744 12.5319 21.625 12.6562 21.625H22.8875C23.0118 21.625 23.131 21.6744 23.219 21.7623C23.3069 21.8502 23.3563 21.9694 23.3563 22.0938C23.3563 22.2181 23.3069 22.3373 23.219 22.4252C23.131 22.5131 23.0118 22.5625 22.8875 22.5625ZM20.4688 26.75H12.6562C12.5319 26.75 12.4127 26.7006 12.3248 26.6127C12.2369 26.5248 12.1875 26.4056 12.1875 26.2813C12.1875 26.1569 12.2369 26.0377 12.3248 25.9498C12.4127 25.8619 12.5319 25.8125 12.6562 25.8125H20.4688C20.5931 25.8125 20.7123 25.8619 20.8002 25.9498C20.8881 26.0377 20.9375 26.1569 20.9375 26.2813C20.9375 26.4056 20.8881 26.5248 20.8002 26.6127C20.7123 26.7006 20.5931 26.75 20.4688 26.75Z" fill="#0061FF"/>
<path d="M22.9688 28.9375C22.8704 28.9375 22.7745 28.9065 22.6947 28.849C22.6149 28.7915 22.5552 28.7103 22.5241 28.617C22.4929 28.5236 22.492 28.4229 22.5213 28.329C22.5507 28.2351 22.6088 28.1528 22.6875 28.0938C23.1471 27.7609 23.4886 27.2902 23.6625 26.75H22.6562C22.5319 26.75 22.4127 26.7006 22.3248 26.6127C22.2369 26.5248 22.1875 26.4056 22.1875 26.2813C22.1875 26.1569 22.2369 26.0377 22.3248 25.9498C22.4127 25.8619 22.5319 25.8125 22.6562 25.8125H24.2188C24.3431 25.8125 24.4623 25.8619 24.5502 25.9498C24.6381 26.0377 24.6875 26.1569 24.6875 26.2813C24.6534 26.7884 24.5067 27.2815 24.2581 27.7248C24.0094 28.1681 23.665 28.5503 23.25 28.8438C23.1687 28.9042 23.0701 28.9371 22.9688 28.9375ZM26.0938 28.9375C25.9954 28.9375 25.8995 28.9065 25.8197 28.849C25.7399 28.7915 25.6802 28.7103 25.6491 28.617C25.6179 28.5236 25.617 28.4229 25.6463 28.329C25.6757 28.2351 25.7338 28.1528 25.8125 28.0938C26.2721 27.7609 26.6136 27.2902 26.7875 26.75H25.7812C25.6569 26.75 25.5377 26.7006 25.4498 26.6127C25.3619 26.5248 25.3125 26.4056 25.3125 26.2813C25.3125 26.1569 25.3619 26.0377 25.4498 25.9498C25.5377 25.8619 25.6569 25.8125 25.7812 25.8125H27.3438C27.4681 25.8125 27.5873 25.8619 27.6752 25.9498C27.7631 26.0377 27.8125 26.1569 27.8125 26.2813C27.7784 26.7884 27.6317 27.2815 27.3831 27.7248C27.1344 28.1681 26.79 28.5503 26.375 28.8438C26.2937 28.9042 26.1951 28.9371 26.0938 28.9375ZM17.3438 14.1875H15.7812C15.6569 14.1875 15.5377 14.1381 15.4498 14.0502C15.3619 13.9623 15.3125 13.8431 15.3125 13.7188C15.3466 13.2116 15.4933 12.7185 15.7419 12.2752C15.9906 11.8319 16.335 11.4497 16.75 11.1563C16.8495 11.0817 16.9745 11.0496 17.0975 11.0672C17.2206 11.0848 17.3317 11.1505 17.4062 11.25C17.4808 11.3495 17.5129 11.4745 17.4953 11.5975C17.4777 11.7206 17.412 11.8317 17.3125 11.9063C16.8529 12.2391 16.5114 12.7098 16.3375 13.25H17.3438C17.4681 13.25 17.5873 13.2994 17.6752 13.3873C17.7631 13.4752 17.8125 13.5944 17.8125 13.7188C17.8125 13.8431 17.7631 13.9623 17.6752 14.0502C17.5873 14.1381 17.4681 14.1875 17.3438 14.1875ZM14.2188 14.1875H12.6562C12.5319 14.1875 12.4127 14.1381 12.3248 14.0502C12.2369 13.9623 12.1875 13.8431 12.1875 13.7188C12.2216 13.2116 12.3683 12.7185 12.6169 12.2752C12.8656 11.8319 13.21 11.4497 13.625 11.1563C13.7245 11.0817 13.8495 11.0496 13.9725 11.0672C14.0956 11.0848 14.2067 11.1505 14.2812 11.25C14.3558 11.3495 14.3879 11.4745 14.3703 11.5975C14.3527 11.7206 14.287 11.8317 14.1875 11.9063C13.7279 12.2391 13.3864 12.7098 13.2125 13.25H14.2188C14.3431 13.25 14.4623 13.2994 14.5502 13.3873C14.6381 13.4752 14.6875 13.5944 14.6875 13.7188C14.6875 13.8431 14.6381 13.9623 14.5502 14.0502C14.4623 14.1381 14.3431 14.1875 14.2188 14.1875ZM27.3438 14.1875H19.5312C19.4069 14.1875 19.2877 14.1381 19.1998 14.0502C19.1119 13.9623 19.0625 13.8431 19.0625 13.7188C19.0625 13.5944 19.1119 13.4752 19.1998 13.3873C19.2877 13.2994 19.4069 13.25 19.5312 13.25H27.3438C27.4681 13.25 27.5873 13.2994 27.6752 13.3873C27.7631 13.4752 27.8125 13.5944 27.8125 13.7188C27.8125 13.8431 27.7631 13.9623 27.6752 14.0502C27.5873 14.1381 27.4681 14.1875 27.3438 14.1875ZM27.3438 18.375H17.7281C17.6038 18.375 17.4846 18.3256 17.3967 18.2377C17.3088 18.1498 17.2594 18.0306 17.2594 17.9063C17.2594 17.7819 17.3088 17.6627 17.3967 17.5748C17.4846 17.4869 17.6038 17.4375 17.7281 17.4375H27.3438C27.4681 17.4375 27.5873 17.4869 27.6752 17.5748C27.7631 17.6627 27.8125 17.7819 27.8125 17.9063C27.8125 18.0306 27.7631 18.1498 27.6752 18.2377C27.5873 18.3256 27.4681 18.375 27.3438 18.375ZM15.4719 18.375H12.6594C12.5351 18.375 12.4158 18.3256 12.3279 18.2377C12.24 18.1498 12.1906 18.0306 12.1906 17.9063C12.1906 17.7819 12.24 17.6627 12.3279 17.5748C12.4158 17.4869 12.5351 17.4375 12.6594 17.4375H15.4719C15.5962 17.4375 15.7154 17.4869 15.8033 17.5748C15.8912 17.6627 15.9406 17.7819 15.9406 17.9063C15.9406 18.0306 15.8912 18.1498 15.8033 18.2377C15.7154 18.3256 15.5962 18.375 15.4719 18.375ZM27.3438 22.5625H25.1562C25.0319 22.5625 24.9127 22.5131 24.8248 22.4252C24.7369 22.3373 24.6875 22.2181 24.6875 22.0938C24.6875 21.9694 24.7369 21.8502 24.8248 21.7623C24.9127 21.6744 25.0319 21.625 25.1562 21.625H27.3438C27.4681 21.625 27.5873 21.6744 27.6752 21.7623C27.7631 21.8502 27.8125 21.9694 27.8125 22.0938C27.8125 22.2181 27.7631 22.3373 27.6752 22.4252C27.5873 22.5131 27.4681 22.5625 27.3438 22.5625ZM22.8875 22.5625H12.6562C12.5319 22.5625 12.4127 22.5131 12.3248 22.4252C12.2369 22.3373 12.1875 22.2181 12.1875 22.0938C12.1875 21.9694 12.2369 21.8502 12.3248 21.7623C12.4127 21.6744 12.5319 21.625 12.6562 21.625H22.8875C23.0118 21.625 23.131 21.6744 23.219 21.7623C23.3069 21.8502 23.3563 21.9694 23.3563 22.0938C23.3563 22.2181 23.3069 22.3373 23.219 22.4252C23.131 22.5131 23.0118 22.5625 22.8875 22.5625ZM20.4688 26.75H12.6562C12.5319 26.75 12.4127 26.7006 12.3248 26.6127C12.2369 26.5248 12.1875 26.4056 12.1875 26.2813C12.1875 26.1569 12.2369 26.0377 12.3248 25.9498C12.4127 25.8619 12.5319 25.8125 12.6562 25.8125H20.4688C20.5931 25.8125 20.7123 25.8619 20.8002 25.9498C20.8881 26.0377 20.9375 26.1569 20.9375 26.2813C20.9375 26.4056 20.8881 26.5248 20.8002 26.6127C20.7123 26.7006 20.5931 26.75 20.4688 26.75Z" stroke="#0061FF" stroke-width="0.2" mask="url(#path-2-outside-1_401_2594)"/>
</svg>
