<svg width="26" height="26" viewBox="0 0 26 26" fill="none" xmlns="http://www.w3.org/2000/svg">
<path d="M11.6461 2.65418C12.4044 2.01501 13.6286 2.01501 14.3653 2.65418L16.0769 4.11668C16.4019 4.38751 17.0194 4.61501 17.4528 4.61501H19.2944C20.4428 4.61501 21.3853 5.55751 21.3853 6.70585V8.54751C21.3853 8.98085 21.6128 9.58751 21.8836 9.91251L23.3461 11.6242C23.9853 12.3825 23.9853 13.6067 23.3461 14.3433L21.8836 16.055C21.6128 16.38 21.3853 16.9867 21.3853 17.42V19.2617C21.3853 20.41 20.4428 21.3525 19.2944 21.3525H17.4528C17.0194 21.3525 16.4128 21.58 16.0878 21.8508L14.3761 23.3133C13.6178 23.9525 12.3936 23.9525 11.6569 23.3133L9.94528 21.8508C9.62028 21.58 9.00278 21.3525 8.58028 21.3525H6.68445C5.53611 21.3525 4.59361 20.41 4.59361 19.2617V17.4092C4.59361 16.9867 4.37695 16.3692 4.10611 16.055L2.64361 14.3325C2.01528 13.585 2.01528 12.3717 2.64361 11.6242L4.10611 9.90168C4.37695 9.57668 4.59361 8.97001 4.59361 8.54751V6.71668C4.59361 5.56835 5.53611 4.62585 6.68445 4.62585H8.55861C8.99195 4.62585 9.59861 4.39835 9.92361 4.12751L11.6461 2.65418Z" stroke="#FF7878" stroke-width="1.3" stroke-linecap="round" stroke-linejoin="round"/>
<path d="M13 8.80664V14.0391" stroke="#FF7878" stroke-width="1.3" stroke-linecap="round" stroke-linejoin="round"/>
<path d="M12.9941 17.3335H13.0039" stroke="#FF7878" stroke-width="1.3" stroke-linecap="round" stroke-linejoin="round"/>
</svg>
