<svg width="18" height="18" viewBox="0 0 18 18" fill="none" xmlns="http://www.w3.org/2000/svg">
<path d="M8.99951 1.50098C4.86701 1.50098 1.49951 4.86848 1.49951 9.00098C1.49951 13.1335 4.86701 16.501 8.99951 16.501C13.132 16.501 16.4995 13.1335 16.4995 9.00098C16.4995 4.86848 13.132 1.50098 8.99951 1.50098ZM8.43701 6.00098C8.43701 5.69348 8.69201 5.43848 8.99951 5.43848C9.30701 5.43848 9.56201 5.69348 9.56201 6.00098V9.75098C9.56201 10.0585 9.30701 10.3135 8.99951 10.3135C8.69201 10.3135 8.43701 10.0585 8.43701 9.75098V6.00098ZM9.68951 12.286C9.65201 12.3835 9.59951 12.4585 9.53201 12.5335C9.45701 12.601 9.37451 12.6535 9.28451 12.691C9.19451 12.7285 9.09701 12.751 8.99951 12.751C8.90201 12.751 8.80451 12.7285 8.71451 12.691C8.62451 12.6535 8.54201 12.601 8.46701 12.5335C8.39951 12.4585 8.34701 12.3835 8.30951 12.286C8.27201 12.196 8.24951 12.0985 8.24951 12.001C8.24951 11.9035 8.27201 11.806 8.30951 11.716C8.34701 11.626 8.39951 11.5435 8.46701 11.4685C8.54201 11.401 8.62451 11.3485 8.71451 11.311C8.89451 11.236 9.10451 11.236 9.28451 11.311C9.37451 11.3485 9.45701 11.401 9.53201 11.4685C9.59951 11.5435 9.65201 11.626 9.68951 11.716C9.72701 11.806 9.74951 11.9035 9.74951 12.001C9.74951 12.0985 9.72701 12.196 9.68951 12.286Z" fill="#FF7878"/>
</svg>
