<svg width="18" height="18" viewBox="0 0 18 18" fill="none" xmlns="http://www.w3.org/2000/svg">
<path d="M9 0C4.02975 0 0 4.02975 0 9C0 13.9703 4.02975 18 9 18C13.9703 18 18 13.9703 18 9C18 4.02975 13.9703 0 9 0ZM7.875 7.875C7.875 7.57663 7.99353 7.29048 8.2045 7.0795C8.41548 6.86853 8.70163 6.75 9 6.75C9.29837 6.75 9.58452 6.86853 9.7955 7.0795C10.0065 7.29048 10.125 7.57663 10.125 7.875V13.5C10.125 13.7984 10.0065 14.0845 9.7955 14.2955C9.58452 14.5065 9.29837 14.625 9 14.625C8.70163 14.625 8.41548 14.5065 8.2045 14.2955C7.99353 14.0845 7.875 13.7984 7.875 13.5V7.875ZM9 5.643C8.85223 5.64296 8.70591 5.61382 8.5694 5.55724C8.43288 5.50065 8.30885 5.41773 8.20439 5.31321C8.09992 5.2087 8.01707 5.08463 7.96055 4.94809C7.90403 4.81155 7.87496 4.66521 7.875 4.51744C7.87504 4.36966 7.90418 4.22334 7.96076 4.08683C8.01735 3.95032 8.10027 3.82629 8.20479 3.72183C8.3093 3.61736 8.43338 3.5345 8.56991 3.47799C8.70645 3.42147 8.85279 3.3924 9.00056 3.39244C9.29901 3.39251 9.5852 3.51114 9.79617 3.72222C10.0072 3.93331 10.1256 4.21956 10.1256 4.518C10.1255 4.81644 10.0069 5.10263 9.79578 5.31361C9.58469 5.52459 9.29844 5.64307 9 5.643Z" fill="#EC1818"/>
</svg>
