<svg width="105" height="70" viewBox="0 0 105 70" fill="none" xmlns="http://www.w3.org/2000/svg">
<path fill-rule="evenodd" clip-rule="evenodd" d="M28.7079 40.846C26.4481 40.846 24.3223 41.5461 22.6248 42.7263L22.6119 42.7352C20.449 44.217 18.8819 46.4502 18.3059 49.067H39.1081C38.0665 44.3608 33.8119 40.846 28.7079 40.846ZM19.997 39.0609C22.4547 37.354 25.4964 36.3618 28.7079 36.3618C37.1145 36.3618 43.9139 43.0456 43.9139 51.3091C43.9139 52.5474 42.8927 53.5512 41.633 53.5512H15.7829C14.5231 53.5512 13.502 52.5474 13.502 51.3091C13.502 46.2142 16.0687 41.7552 19.997 39.0609Z" fill="white"/>
<path fill-rule="evenodd" clip-rule="evenodd" d="M49.2895 4.51096C35.5884 4.51096 24.2418 14.6886 22.4361 27.9218C22.3002 28.9179 21.521 29.7039 20.5255 29.8489C11.9873 31.0933 5.45435 38.4281 5.45435 47.2648C5.45435 56.71 12.8971 64.4371 22.2611 64.9076H23.1088C28.885 64.9076 34.0411 62.1122 37.2438 57.8019C38.1034 56.6373 38.7397 55.2674 39.0649 53.7806H15.9868C14.7403 53.7806 13.7299 52.7708 13.7299 51.5251C13.7299 46.3998 16.2697 41.9142 20.1568 39.2038C22.5887 37.4867 25.5985 36.4886 28.7763 36.4886H75.9931C76.2744 34.9014 76.4232 33.2878 76.4232 31.6268C76.4232 16.633 64.2931 4.51096 49.2895 4.51096ZM18.2283 25.6889C21.0087 11.0511 33.8644 0 49.2895 0C66.7861 0 80.9371 14.1417 80.9371 31.6268C80.9371 34.2706 80.6127 36.8024 80.0226 39.2687C79.7797 40.2836 78.8718 40.9996 77.8275 40.9996H28.7763C26.5401 40.9996 24.4366 41.7039 22.757 42.8911L22.7442 42.9001C20.604 44.3907 19.0533 46.6372 18.4834 49.2697H41.5657C42.8122 49.2697 43.8227 50.2795 43.8227 51.5251C43.8227 54.8854 42.7023 58.0075 40.8739 60.4831L40.8702 60.488C36.8506 65.8998 30.3717 69.4186 23.1088 69.4186H22.206C22.1704 69.4186 22.1348 69.4178 22.0992 69.4161C10.3221 68.8583 0.94043 59.1541 0.94043 47.2648C0.94043 36.7289 8.32383 27.9069 18.2283 25.6889Z" fill="white"/>
<path fill-rule="evenodd" clip-rule="evenodd" d="M26.4456 38.626C26.4456 37.3755 27.4567 36.3618 28.704 36.3618H88.2262L88.2406 36.3619C97.3482 36.42 104.738 43.8078 104.738 52.9152C104.738 57.4681 102.874 61.6086 99.9108 64.5791C96.9447 67.5527 92.8136 69.4183 88.2262 69.4183H23.0328C21.7855 69.4183 20.7744 68.4046 20.7744 67.1541C20.7744 65.9037 21.7855 64.89 23.0328 64.89C28.8139 64.89 33.9743 62.0828 37.179 57.7544C37.1846 57.7468 37.1903 57.7392 37.196 57.7317C38.4923 56.0261 39.2434 53.8451 39.2434 51.4561C39.2434 45.6122 34.5331 40.8901 28.704 40.8901C27.4567 40.8901 26.4456 39.8764 26.4456 38.626ZM39.4625 40.8901C42.1219 43.6114 43.7602 47.3397 43.7602 51.4561C43.7602 54.7978 42.7078 57.9457 40.7976 60.4645C39.5587 62.1356 38.0868 63.6266 36.4308 64.89H88.2262C91.5685 64.89 94.5639 63.5355 96.7169 61.3771C98.873 59.2155 100.221 56.2113 100.221 52.9152C100.221 46.3268 94.8668 40.9362 88.2187 40.8901H39.4625Z" fill="white"/>
<path fill-rule="evenodd" clip-rule="evenodd" d="M22.6895 29.5847C21.7504 29.5847 20.9138 29.6309 20.1056 29.7558C18.8613 29.9479 17.6934 29.1171 17.497 27.8999C17.3005 26.6828 18.1499 25.5404 19.3941 25.3482C20.5118 25.1755 21.6013 25.1226 22.6895 25.1226C25.7413 25.1226 28.6155 25.7315 31.2482 26.7726C32.416 27.2344 32.98 28.5348 32.5079 29.6772C32.0358 30.8196 30.7064 31.3713 29.5386 30.9095C27.407 30.0666 25.1115 29.5847 22.6895 29.5847Z" fill="white"/>
<path fill-rule="evenodd" clip-rule="evenodd" d="M49.2031 52.8901C49.2031 52.1599 49.8839 51.5679 50.7237 51.5679H93.3005C94.1403 51.5679 94.8211 52.1599 94.8211 52.8901C94.8211 53.6204 94.1403 54.2124 93.3005 54.2124H50.7237C49.8839 54.2124 49.2031 53.6204 49.2031 52.8901Z" fill="white"/>
</svg>
