<svg width="20" height="20" viewBox="0 0 20 20" fill="none" xmlns="http://www.w3.org/2000/svg">
<g opacity="0.5">
<path d="M2.95127 12.9152C2.78395 10.9074 2.70029 9.9035 3.08321 9.14623C3.33358 8.65111 3.71636 8.23511 4.18898 7.94449C4.91183 7.5 5.91922 7.5 7.934 7.5H12.066C14.0808 7.5 15.0882 7.5 15.811 7.94449C16.2836 8.23511 16.6664 8.65111 16.9168 9.14623C17.2997 9.9035 17.216 10.9074 17.0487 12.9152V12.9152C16.9048 14.6424 16.8328 15.506 16.4173 16.1416C16.1445 16.5588 15.7721 16.9015 15.3337 17.1386C14.6657 17.5 13.7991 17.5 12.066 17.5H7.934C6.20085 17.5 5.33428 17.5 4.6663 17.1386C4.2279 16.9015 3.8555 16.5588 3.58274 16.1416C3.16716 15.506 3.0952 14.6424 2.95127 12.9152V12.9152Z" stroke="#001521" stroke-width="1.3"/>
<path d="M6 7C6 7 6.01235 2 10.0055 2C13.9987 2 14 7 14 7" stroke="#001521" stroke-width="1.3"/>
<path d="M10 14.1665L10 12.4998" stroke="#001521" stroke-width="1.3" stroke-linecap="round"/>
</g>
</svg>
