<svg width="92" height="61" viewBox="0 0 92 61" fill="none" xmlns="http://www.w3.org/2000/svg">
<path fill-rule="evenodd" clip-rule="evenodd" d="M24.4 35.8925C22.4142 35.8925 20.5462 36.5077 19.0546 37.5448L19.0432 37.5526C17.1427 38.8547 15.7656 40.817 15.2594 43.1165H33.5389C32.6236 38.9811 28.885 35.8925 24.4 35.8925ZM16.7455 34.3239C18.9051 32.824 21.578 31.9521 24.4 31.9521C31.787 31.9521 37.7619 37.8254 37.7619 45.0867C37.7619 46.1748 36.8645 47.0569 35.7576 47.0569H13.0424C11.9354 47.0569 11.0381 46.1748 11.0381 45.0867C11.0381 40.6097 13.2935 36.6915 16.7455 34.3239Z" fill="white"/>
<path fill-rule="evenodd" clip-rule="evenodd" d="M42.4856 3.9639C30.4461 3.9639 20.4755 12.9073 18.8888 24.5357C18.7694 25.411 18.0847 26.1016 17.2099 26.2291C9.70714 27.3225 3.9665 33.7678 3.9665 41.5329C3.9665 49.8326 10.5067 56.6226 18.735 57.0361H19.4799C24.5556 57.0361 29.0864 54.5797 31.9008 50.7921C32.6561 49.7688 33.2152 48.5649 33.501 47.2585H13.2217C12.1264 47.2585 11.2384 46.3711 11.2384 45.2765C11.2384 40.7728 13.4702 36.8311 16.8859 34.4494C19.0229 32.9406 21.6677 32.0635 24.4601 32.0635H65.9508C66.198 30.6688 66.3287 29.2509 66.3287 27.7913C66.3287 14.6159 55.6697 3.9639 42.4856 3.9639ZM15.1913 22.5735C17.6345 9.71087 28.9312 0 42.4856 0C57.8604 0 70.2952 12.4267 70.2952 27.7913C70.2952 30.1145 70.0102 32.3393 69.4916 34.5064C69.2782 35.3983 68.4804 36.0274 67.5628 36.0274H24.4601C22.4951 36.0274 20.6467 36.6463 19.1708 37.6896L19.1596 37.6975C17.2789 39.0073 15.9163 40.9814 15.4155 43.2946H35.6985C36.7938 43.2946 37.6818 44.1819 37.6818 45.2765C37.6818 48.2292 36.6973 50.9727 35.0906 53.1481L35.0874 53.1524C31.5552 57.9079 25.862 61 19.4799 61H18.6866C18.6553 61 18.624 60.9993 18.5927 60.9978C8.24397 60.5076 0 51.9803 0 41.5329C0 32.2747 6.48799 24.5226 15.1913 22.5735Z" fill="white"/>
<path fill-rule="evenodd" clip-rule="evenodd" d="M22.4121 33.9417C22.4121 32.8429 23.3006 31.9521 24.3967 31.9521H76.7004L76.7131 31.9522C84.7161 32.0033 91.2097 38.4952 91.2097 46.4981C91.2097 50.4988 89.5717 54.1371 86.968 56.7474C84.3616 59.3604 80.7315 60.9998 76.7004 60.9998H19.4133C18.3172 60.9998 17.4287 60.109 17.4287 59.0102C17.4287 57.9114 18.3172 57.0206 19.4133 57.0206C24.4933 57.0206 29.0278 54.5538 31.8438 50.7504C31.8488 50.7437 31.8538 50.7371 31.8588 50.7304C32.9979 49.2316 33.6579 47.3152 33.6579 45.2159C33.6579 40.0807 29.5189 35.9313 24.3967 35.9313C23.3006 35.9313 22.4121 35.0405 22.4121 33.9417ZM33.8505 35.9313C36.1874 38.3226 37.627 41.5987 37.627 45.2159C37.627 48.1524 36.7022 50.9185 35.0236 53.1319C33.9349 54.6003 32.6416 55.9105 31.1864 57.0206H76.7004C79.6374 57.0206 82.2696 55.8304 84.1615 53.9337C86.0561 52.0343 87.2406 49.3945 87.2406 46.4981C87.2406 40.7087 82.5357 35.9718 76.6938 35.9313H33.8505Z" fill="white"/>
<path fill-rule="evenodd" clip-rule="evenodd" d="M19.1115 25.9972C18.2863 25.9972 17.5512 26.0378 16.841 26.1475C15.7476 26.3164 14.7214 25.5862 14.5487 24.5167C14.3761 23.4472 15.1225 22.4433 16.2158 22.2744C17.198 22.1227 18.1553 22.0762 19.1115 22.0762C21.7932 22.0762 24.3189 22.6113 26.6323 23.5261C27.6585 23.9319 28.1541 25.0746 27.7392 26.0785C27.3244 27.0823 26.1562 27.5671 25.13 27.1613C23.2569 26.4206 21.2398 25.9972 19.1115 25.9972Z" fill="white"/>
</svg>
