<svg width="40" height="40" viewBox="0 0 40 40" fill="none" xmlns="http://www.w3.org/2000/svg">
<rect opacity="0.05" width="40" height="40" rx="6" fill="#0061FF"/>
<path d="M24.1665 25.3583H20.8332L17.1248 27.8249C16.5748 28.1916 15.8332 27.8 15.8332 27.1333V25.3583C13.3332 25.3583 11.6665 23.6916 11.6665 21.1916V16.1916C11.6665 13.6916 13.3332 12.0249 15.8332 12.0249H24.1665C26.6665 12.0249 28.3332 13.6916 28.3332 16.1916V21.1916C28.3332 23.6916 26.6665 25.3583 24.1665 25.3583Z" stroke="#0061FF" stroke-width="1.3" stroke-miterlimit="10" stroke-linecap="round" stroke-linejoin="round"/>
<path d="M20 19.4668V19.2918C20 18.7252 20.35 18.4251 20.7 18.1835C21.0417 17.9501 21.3833 17.6502 21.3833 17.1002C21.3833 16.3335 20.7667 15.7168 20 15.7168C19.2333 15.7168 18.6167 16.3335 18.6167 17.1002" stroke="#0061FF" stroke-width="1.3" stroke-linecap="round" stroke-linejoin="round"/>
<path d="M19.9964 21.4582H20.0039" stroke="#0061FF" stroke-width="1.3" stroke-linecap="round" stroke-linejoin="round"/>
</svg>
