<svg width="22" height="22" viewBox="0 0 22 22" fill="none" xmlns="http://www.w3.org/2000/svg">
<path d="M19.3051 10.8348L19.1584 10.6331C18.9017 10.3215 18.5992 10.074 18.2509 9.89064C17.7834 9.6248 17.2517 9.4873 16.7017 9.4873H5.28924C4.73924 9.4873 4.21674 9.6248 3.74007 9.89064C3.38257 10.0831 3.06174 10.349 2.7959 10.679C2.2734 11.3481 2.0259 12.1731 2.1084 12.9981L2.44757 17.279C2.56674 18.5715 2.72257 20.1665 5.6284 20.1665H16.3717C19.2776 20.1665 19.4242 18.5715 19.5526 17.2698L19.8917 13.0073C19.9742 12.2373 19.7726 11.4673 19.3051 10.8348ZM13.1909 15.8948H8.80007C8.44257 15.8948 8.1584 15.6015 8.1584 15.2531C8.1584 14.9048 8.44257 14.6115 8.80007 14.6115H13.1909C13.5484 14.6115 13.8326 14.9048 13.8326 15.2531C13.8326 15.6106 13.5484 15.8948 13.1909 15.8948Z" fill="white"/>
<path d="M18.8402 7.80743C18.8813 8.18992 18.4652 8.448 18.0985 8.33186C17.6563 8.19184 17.1923 8.12183 16.7108 8.12183H5.28917C4.80294 8.12183 4.32385 8.19679 3.87417 8.34004C3.51192 8.45544 3.09834 8.2069 3.09834 7.82672V6.10516C3.09834 2.83266 4.0975 1.8335 7.37 1.8335H8.45167C9.7625 1.8335 10.175 2.25516 10.7067 2.94266L11.8067 4.40933C12.0358 4.721 12.045 4.73933 12.4483 4.73933H14.63C17.4657 4.73933 18.5916 5.49108 18.8402 7.80743Z" fill="white"/>
<path d="M19.3051 10.8348L19.1584 10.6331C18.9017 10.3215 18.5992 10.074 18.2509 9.89064C17.7834 9.6248 17.2517 9.4873 16.7017 9.4873H5.28924C4.73924 9.4873 4.21674 9.6248 3.74007 9.89064C3.38257 10.0831 3.06174 10.349 2.7959 10.679C2.2734 11.3481 2.0259 12.1731 2.1084 12.9981L2.44757 17.279C2.56674 18.5715 2.72257 20.1665 5.6284 20.1665H16.3717C19.2776 20.1665 19.4242 18.5715 19.5526 17.2698L19.8917 13.0073C19.9742 12.2373 19.7726 11.4673 19.3051 10.8348ZM13.1909 15.8948H8.80007C8.44257 15.8948 8.1584 15.6015 8.1584 15.2531C8.1584 14.9048 8.44257 14.6115 8.80007 14.6115H13.1909C13.5484 14.6115 13.8326 14.9048 13.8326 15.2531C13.8326 15.6106 13.5484 15.8948 13.1909 15.8948Z" fill="white"/>
<path d="M18.8402 7.80743C18.8813 8.18992 18.4652 8.448 18.0985 8.33186C17.6563 8.19184 17.1923 8.12183 16.7108 8.12183H5.28917C4.80294 8.12183 4.32385 8.19679 3.87417 8.34004C3.51192 8.45544 3.09834 8.2069 3.09834 7.82672V6.10516C3.09834 2.83266 4.0975 1.8335 7.37 1.8335H8.45167C9.7625 1.8335 10.175 2.25516 10.7067 2.94266L11.8067 4.40933C12.0358 4.721 12.045 4.73933 12.4483 4.73933H14.63C17.4657 4.73933 18.5916 5.49108 18.8402 7.80743Z" fill="white"/>
</svg>
