<svg width="40" height="40" viewBox="0 0 40 40" fill="none" xmlns="http://www.w3.org/2000/svg">
<rect opacity="0.05" width="40" height="40" rx="6" fill="#0061FF"/>
<path d="M15 18.3332V16.6665C15 13.9082 15.8333 11.6665 20 11.6665C24.1667 11.6665 25 13.9082 25 16.6665V18.3332" stroke="#0061FF" stroke-width="1.3" stroke-linecap="round" stroke-linejoin="round"/>
<path d="M19.9998 25.4167C21.1504 25.4167 22.0832 24.4839 22.0832 23.3333C22.0832 22.1827 21.1504 21.25 19.9998 21.25C18.8492 21.25 17.9165 22.1827 17.9165 23.3333C17.9165 24.4839 18.8492 25.4167 19.9998 25.4167Z" stroke="#0061FF" stroke-width="1.3" stroke-linecap="round" stroke-linejoin="round"/>
<path d="M24.1665 28.3335H15.8332C12.4998 28.3335 11.6665 27.5002 11.6665 24.1668V22.5002C11.6665 19.1668 12.4998 18.3335 15.8332 18.3335H24.1665C27.4998 18.3335 28.3332 19.1668 28.3332 22.5002V24.1668C28.3332 27.5002 27.4998 28.3335 24.1665 28.3335Z" stroke="#0061FF" stroke-width="1.3" stroke-linecap="round" stroke-linejoin="round"/>
</svg>
