<svg width="40" height="40" viewBox="0 0 40 40" fill="none" xmlns="http://www.w3.org/2000/svg">
<rect opacity="0.05" width="40" height="40" rx="6" fill="#0061FF"/>
<path d="M20.1331 19.0582C20.0498 19.0498 19.9498 19.0498 19.8581 19.0582C17.8748 18.9915 16.2998 17.3665 16.2998 15.3665C16.2998 13.3248 17.9498 11.6665 19.9998 11.6665C22.0415 11.6665 23.6998 13.3248 23.6998 15.3665C23.6915 17.3665 22.1165 18.9915 20.1331 19.0582Z" stroke="#0061FF" stroke-width="1.3" stroke-linecap="round" stroke-linejoin="round"/>
<path d="M15.9666 22.1335C13.9499 23.4835 13.9499 25.6835 15.9666 27.0252C18.2583 28.5585 22.0166 28.5585 24.3083 27.0252C26.3249 25.6752 26.3249 23.4752 24.3083 22.1335C22.0249 20.6085 18.2666 20.6085 15.9666 22.1335Z" stroke="#0061FF" stroke-width="1.3" stroke-linecap="round" stroke-linejoin="round"/>
</svg>
