<svg width="40" height="40" viewBox="0 0 40 40" fill="none" xmlns="http://www.w3.org/2000/svg">
<rect opacity="0.05" width="40" height="40" rx="6" fill="#0061FF"/>
<path d="M21.4416 12.9247L22.9083 15.858C23.1083 16.2664 23.6416 16.658 24.0916 16.733L26.7499 17.1747C28.4499 17.458 28.8499 18.6914 27.6249 19.908L25.5583 21.9747C25.2083 22.3247 25.0166 22.9997 25.1249 23.483L25.7166 26.0414C26.1833 28.0664 25.1083 28.8497 23.3166 27.7914L20.8249 26.3164C20.3749 26.0497 19.6333 26.0497 19.1749 26.3164L16.6833 27.7914C14.8999 28.8497 13.8166 28.058 14.2833 26.0414L14.8749 23.483C14.9833 22.9997 14.7916 22.3247 14.4416 21.9747L12.3749 19.908C11.1583 18.6914 11.5499 17.458 13.2499 17.1747L15.9083 16.733C16.3499 16.658 16.8833 16.2664 17.0833 15.858L18.5499 12.9247C19.3499 11.333 20.6499 11.333 21.4416 12.9247Z" stroke="#0061FF" stroke-width="1.3" stroke-linecap="round" stroke-linejoin="round"/>
</svg>
