<svg width="125" height="125" viewBox="0 0 125 125" fill="none" xmlns="http://www.w3.org/2000/svg">
<path opacity="0.05" d="M122.879 96.0039C122.386 91.913 121.098 87.7842 118.371 84.6971C115.53 81.4774 111.364 79.6971 107.14 78.8827C102.348 77.9736 97.3484 78.2009 92.6703 79.5645C84.0908 82.0645 77.0453 88.0872 70.3976 94.0532C68.5983 95.663 66.6665 97.2729 65.5302 99.413C60.2839 109.356 64.2044 119.261 64.9052 123.087H114.773C116.042 121.534 117.14 119.773 118.068 118.239C121.989 111.629 123.788 103.693 122.879 96.0039ZM65.7953 80.0759C69.2423 75.3031 70.8332 69.4698 72.5188 63.8259C74.7726 56.2122 77.2915 48.6175 78.4468 40.7577C79.6021 32.8979 79.337 24.6403 76.193 17.3297C73.0491 10.038 66.6855 3.86376 58.9014 2.29179C52.5756 1.02285 46.0794 2.80315 39.8673 4.58346C35.4165 5.89028 10.8332 20.5115 3.21956 49.4319C0.814253 58.5797 1.72334 68.6744 5.66274 77.2729C12.443 92.1024 28.2764 96.9698 43.4658 93.6175C48.1438 92.5759 52.6514 90.7577 56.7423 88.2198C60.2082 86.0797 63.409 83.3903 65.7953 80.0759Z" fill="#0061FF"/>
<path opacity="0.05" d="M100.757 62.4998C110.307 62.4998 118.049 54.7581 118.049 45.2082C118.049 35.6582 110.307 27.9165 100.757 27.9165C91.2076 27.9165 83.4658 35.6582 83.4658 45.2082C83.4658 54.7581 91.2076 62.4998 100.757 62.4998Z" fill="#0061FF"/>
<path d="M106.552 15.5872C102.67 14.5834 99.6584 11.5531 98.6546 7.68945C97.6508 11.572 94.6205 14.5834 90.7568 15.5872C94.6394 16.591 97.6508 19.6213 98.6546 23.4849C99.6394 19.6213 102.67 16.591 106.552 15.5872Z" fill="#0061FF"/>
<path d="M112.898 38.3522C114.739 38.3522 116.231 36.8598 116.231 35.0189C116.231 33.1779 114.739 31.6855 112.898 31.6855C111.057 31.6855 109.564 33.1779 109.564 35.0189C109.564 36.8598 111.057 38.3522 112.898 38.3522Z" fill="#8FAFDE"/>
<path d="M98.8253 33.7687C100.049 33.7687 101.041 32.7766 101.041 31.5528C101.041 30.329 100.049 29.3369 98.8253 29.3369C97.6015 29.3369 96.6094 30.329 96.6094 31.5528C96.6094 32.7766 97.6015 33.7687 98.8253 33.7687Z" fill="#0061FF"/>
<path d="M111.78 5.53041C112.784 5.53041 113.598 4.71638 113.598 3.71222C113.598 2.70807 112.784 1.89404 111.78 1.89404C110.776 1.89404 109.962 2.70807 109.962 3.71222C109.962 4.71638 110.776 5.53041 111.78 5.53041Z" fill="#8FAFDE"/>
<path d="M104.205 70.4922C105.436 69.2611 106.175 67.5187 106.042 65.5869C105.815 62.2157 102.804 59.6967 99.4134 59.6967H75.0005C77.8793 57.5755 78.902 44.2233 78.902 44.2233C79.0914 41.5339 78.8642 38.9013 78.8452 38.6361C78.296 30.3217 65.3983 30.7195 65.3983 43.3331C65.3983 56.0036 49.8301 62.3104 49.8301 62.3104V101.629H54.7354C56.1558 101.629 57.5005 102.197 58.5043 103.182C59.5081 104.185 60.8528 104.735 62.2733 104.735H94.4134C95.8907 104.735 97.2164 104.147 98.2013 103.182C99.1672 102.197 99.7543 100.871 99.7543 99.3937C99.7543 96.4581 97.368 94.0717 94.4134 94.0717H96.5346C98.0119 94.0717 99.3377 93.4846 100.323 92.4998C101.288 91.5339 101.876 90.2081 101.876 88.7308C101.876 85.7952 99.4892 83.4089 96.5346 83.4089H98.3717C99.9058 83.4089 101.288 82.7839 102.292 81.7801C103.277 80.7763 103.902 79.3937 103.902 77.8596C103.902 74.8104 101.421 72.3293 98.3717 72.3293H99.6975C101.478 72.3483 103.069 71.6286 104.205 70.4922Z" fill="white"/>
<path d="M49.8481 57.7461H29.2988V106.136H49.8481V57.7461Z" fill="white"/>
<path d="M49.8257 57.6924V99.6504H43.7068C43.1432 99.6504 42.6118 99.5613 42.0965 99.401C41.5169 99.2406 40.9855 98.9734 40.4863 98.6349C38.7473 97.4412 37.5879 95.3032 37.5879 92.8623V57.6924H49.8257Z" fill="#0061FF"/>
<path d="M29.2992 77.1214C30.3452 77.1214 31.1931 76.2734 31.1931 75.2274C31.1931 74.1814 30.3452 73.3335 29.2992 73.3335C28.2532 73.3335 27.4053 74.1814 27.4053 75.2274C27.4053 76.2734 28.2532 77.1214 29.2992 77.1214Z" fill="#001521"/>
<path d="M105.834 77.8788C105.834 76.0227 105.152 74.3371 104.035 73.0303C104.584 72.6894 105.095 72.2916 105.55 71.8371C107.216 70.1704 108.088 67.8409 107.936 65.4734C107.652 61.1742 103.921 57.803 99.4133 57.803H78.3338C79.9057 53.7121 80.5686 47.4621 80.7959 44.356C80.9095 42.6515 80.8906 40.5871 80.758 38.5227C80.4171 33.5227 76.5724 31.0037 72.8792 31.1363C68.3717 31.2878 63.5232 35.1704 63.5232 43.3333C63.5232 51.553 55.8906 56.9318 51.7429 59.2424V57.7462C51.7429 56.7045 50.8906 55.8522 49.8489 55.8522H29.2997C28.258 55.8522 27.4057 56.7045 27.4057 57.7462V60.606H18.9398C17.8982 60.606 17.0459 61.4583 17.0459 62.5C17.0459 63.5416 17.8982 64.3939 18.9398 64.3939H27.4057V69.6969C27.4057 70.7386 28.258 71.5909 29.2997 71.5909C30.3414 71.5909 31.1936 70.7386 31.1936 69.6969V59.6401H47.955V104.242H31.1936V97.6325V80.7575C31.1936 79.7159 30.3414 78.8636 29.2997 78.8636C28.258 78.8636 27.4057 79.7159 27.4057 80.7575V85.7386V99.4886H18.9398C17.8982 99.4886 17.0459 100.341 17.0459 101.383C17.0459 102.424 17.8982 103.276 18.9398 103.276H27.4057V106.136C27.4057 107.178 28.258 108.03 29.2997 108.03H49.8489C50.8906 108.03 51.7429 107.178 51.7429 106.136V103.523H54.7542C55.6823 103.523 56.5345 103.883 57.1785 104.526C58.5421 105.89 60.3603 106.648 62.2921 106.648H94.4323C96.3451 106.648 98.1633 105.909 99.5648 104.526C100.928 103.144 101.667 101.345 101.667 99.4129C101.667 97.7651 101.118 96.231 100.171 95.0189C100.72 94.6969 101.231 94.3182 101.686 93.8636C103.05 92.5 103.807 90.6818 103.807 88.75C103.807 87.0644 103.22 85.4924 102.235 84.2613C102.747 83.9394 103.239 83.5606 103.694 83.125C105.057 81.7235 105.834 79.8485 105.834 77.8788ZM99.7353 70.4545H98.4095C97.3679 70.4545 96.5156 71.3068 96.5156 72.3485C96.5156 73.3901 97.3679 74.2424 98.4095 74.2424C100.417 74.2424 102.046 75.8712 102.046 77.8788C102.046 78.8447 101.667 79.7727 100.985 80.4545C100.285 81.1553 99.3754 81.5341 98.4095 81.5341H96.5724C95.5307 81.5341 94.6785 82.3863 94.6785 83.428C94.6785 84.4697 95.5307 85.3219 96.5724 85.3219C98.4664 85.3219 100.019 86.856 100.019 88.75C100.019 89.6591 99.6595 90.5303 99.0156 91.1742C98.3527 91.8371 97.5005 92.1969 96.5724 92.1969H94.4512C93.4095 92.1969 92.5573 93.0492 92.5573 94.0909C92.5573 95.1325 93.4095 95.9848 94.4512 95.9848C96.3451 95.9848 97.8982 97.5189 97.8982 99.4129C97.8982 100.322 97.5383 101.193 96.9133 101.837C96.2504 102.481 95.3792 102.841 94.4701 102.841H62.3111C61.402 102.841 60.5307 102.481 59.8868 101.837C58.5232 100.473 56.705 99.7159 54.7732 99.7159H51.7618V63.5227C55.6065 61.6856 67.33 55.0947 67.33 43.3144C67.33 37.6704 70.2845 35 73.0118 34.9053C74.7542 34.8295 76.7808 35.8144 76.9891 38.8447C77.1217 40.6818 77.1406 42.5378 77.027 44.0719C76.5156 50.7197 75.0573 57.3106 73.902 58.1628C73.2391 58.6553 72.9739 59.5075 73.2201 60.2841C73.4664 61.0606 74.205 61.5909 75.0194 61.5909H99.4512C101.913 61.5909 104.035 63.4469 104.186 65.7197C104.262 67.0265 103.807 68.2386 102.898 69.1666C102.027 69.981 100.91 70.4545 99.7353 70.4545Z" fill="#001521"/>
</svg>
