<svg width="18" height="18" viewBox="0 0 18 18" fill="none" xmlns="http://www.w3.org/2000/svg">
<path d="M8.99995 17.5502C13.725 17.5502 17.55 13.7252 17.55 9.0002C17.55 4.2752 13.725 0.450195 8.99995 0.450195C4.27495 0.450195 0.449951 4.2752 0.449951 9.0002C0.449951 13.7252 4.27495 17.5502 8.99995 17.5502ZM5.65195 6.6152C5.39095 6.3542 5.39095 5.9222 5.65195 5.6612C5.91295 5.4002 6.34495 5.4002 6.60595 5.6612L8.99995 8.0462L11.394 5.6522C11.655 5.3912 12.087 5.3912 12.348 5.6522C12.609 5.9132 12.609 6.3452 12.348 6.6062L9.95395 9.0002L12.348 11.3942C12.609 11.6552 12.609 12.0872 12.348 12.3482C12.213 12.4832 12.042 12.5462 11.871 12.5462C11.7 12.5462 11.529 12.4832 11.394 12.3482L8.99995 9.9542L6.60595 12.3482C6.47095 12.4832 6.29995 12.5462 6.12895 12.5462C5.95795 12.5462 5.78695 12.4832 5.65195 12.3482C5.39095 12.0872 5.39095 11.6552 5.65195 11.3942L8.04595 9.0002L5.65195 6.6152Z" fill="#EC1818"/>
</svg>
