<svg width="67" height="45" viewBox="0 0 67 45" fill="none" xmlns="http://www.w3.org/2000/svg">
<path fill-rule="evenodd" clip-rule="evenodd" d="M17.7212 26.0673C16.2789 26.0673 14.9223 26.5141 13.839 27.2673L13.8307 27.273C12.4504 28.2187 11.4503 29.6439 11.0827 31.3139H24.3585C23.6937 28.3104 20.9785 26.0673 17.7212 26.0673ZM12.1619 24.9281C13.7304 23.8388 15.6716 23.2056 17.7212 23.2056C23.0861 23.2056 27.4255 27.4711 27.4255 32.7448C27.4255 33.535 26.7738 34.1757 25.9698 34.1757H9.47249C8.66856 34.1757 8.01685 33.535 8.01685 32.7448C8.01685 29.4933 9.65489 26.6476 12.1619 24.9281Z" fill="white"/>
<path fill-rule="evenodd" clip-rule="evenodd" d="M30.856 2.87885C22.112 2.87885 14.8707 9.37414 13.7183 17.8195C13.6316 18.4552 13.1343 18.9567 12.499 19.0493C7.04998 19.8435 2.88074 24.5245 2.88074 30.164C2.88074 36.1918 7.63067 41.1231 13.6066 41.4235H14.1476C17.834 41.4235 21.1245 39.6395 23.1685 36.8886C23.7171 36.1454 24.1231 35.2711 24.3307 34.3223H9.60247C8.80698 34.3223 8.1621 33.6779 8.1621 32.8829C8.1621 29.6119 9.78297 26.7492 12.2637 25.0195C13.8157 23.9237 15.7366 23.2867 17.7646 23.2867H47.898C48.0774 22.2738 48.1724 21.244 48.1724 20.1839C48.1724 10.6151 40.4311 2.87885 30.856 2.87885ZM11.033 16.3944C12.8074 7.05269 21.0118 0 30.856 0C42.0221 0 51.0532 9.02511 51.0532 20.1839C51.0532 21.8712 50.8461 23.487 50.4695 25.0609C50.3145 25.7087 49.7351 26.1656 49.0686 26.1656H17.7646C16.3375 26.1656 14.9951 26.615 13.9231 27.3727L13.915 27.3784C12.5491 28.3298 11.5595 29.7634 11.1957 31.4435H25.9267C26.7222 31.4435 27.3671 32.0879 27.3671 32.8829C27.3671 35.0273 26.6521 37.0198 25.4852 38.5997L25.4828 38.6029C22.9175 42.0566 18.7828 44.3023 14.1476 44.3023H13.5715C13.5488 44.3023 13.526 44.3018 13.5033 44.3007C5.98733 43.9447 0 37.7516 0 30.164C0 23.44 4.71202 17.8099 11.033 16.3944Z" fill="white"/>
<path fill-rule="evenodd" clip-rule="evenodd" d="M16.277 24.6505C16.277 23.8525 16.9223 23.2056 17.7183 23.2056H55.7049L55.714 23.2056C61.5264 23.2427 66.2424 27.9575 66.2424 33.7698C66.2424 36.6754 65.0528 39.3178 63.1619 41.2136C61.2689 43.1113 58.6325 44.3019 55.7049 44.3019H14.099C13.303 44.3019 12.6577 43.655 12.6577 42.857C12.6577 42.0589 13.303 41.412 14.099 41.412C17.7885 41.412 21.0817 39.6204 23.127 36.8581C23.1305 36.8533 23.1342 36.8484 23.1378 36.8436C23.9651 35.7551 24.4444 34.3632 24.4444 32.8386C24.4444 29.1091 21.4384 26.0955 17.7183 26.0955C16.9223 26.0955 16.277 25.4485 16.277 24.6505ZM24.5843 26.0955C26.2815 27.8322 27.3271 30.2115 27.3271 32.8386C27.3271 34.9713 26.6554 36.9802 25.4363 38.5877C24.6457 39.6542 23.7063 40.6057 22.6495 41.412H55.7049C57.8378 41.412 59.7495 40.5476 61.1235 39.1701C62.4995 37.7906 63.3598 35.8734 63.3598 33.7698C63.3598 29.5651 59.9428 26.1249 55.7001 26.0955H24.5843Z" fill="white"/>
<path fill-rule="evenodd" clip-rule="evenodd" d="M13.8799 18.8809C13.2806 18.8809 12.7467 18.9104 12.2309 18.9901C11.4368 19.1127 10.6915 18.5825 10.5661 17.8057C10.4407 17.0289 10.9828 16.2998 11.7769 16.1772C12.4902 16.067 13.1854 16.0332 13.8799 16.0332C15.8275 16.0332 17.6619 16.4218 19.342 17.0862C20.0873 17.381 20.4472 18.2109 20.1459 18.94C19.8446 19.669 18.9962 20.0211 18.2509 19.7264C16.8906 19.1884 15.4256 18.8809 13.8799 18.8809Z" fill="white"/>
<path fill-rule="evenodd" clip-rule="evenodd" d="M30.8008 33.754C30.8008 33.288 31.2353 32.9102 31.7712 32.9102H58.9433C59.4793 32.9102 59.9137 33.288 59.9137 33.754C59.9137 34.2201 59.4793 34.5979 58.9433 34.5979H31.7712C31.2353 34.5979 30.8008 34.2201 30.8008 33.754Z" fill="white"/>
</svg>
