<svg width="68" height="45" viewBox="0 0 68 45" fill="none" xmlns="http://www.w3.org/2000/svg">
<path fill-rule="evenodd" clip-rule="evenodd" d="M31.8127 2.91596C23.0688 2.91596 15.8275 9.41125 14.6751 17.8566C14.5884 18.4923 14.0911 18.9938 13.4558 19.0864C8.00677 19.8806 3.83753 24.5616 3.83753 30.2011C3.83753 36.2289 8.58745 41.1602 14.5634 41.4606H15.1044C18.7907 41.4606 22.0813 39.6766 24.1253 36.9257C24.6739 36.1825 25.0799 35.3082 25.2875 34.3594H10.5593C9.76377 34.3594 9.11889 33.715 9.11889 32.92C9.11889 29.649 10.7398 26.7864 13.2205 25.0566C14.7725 23.9608 16.6933 23.3238 18.7214 23.3238H48.8547C49.0342 22.3109 49.1292 21.2811 49.1292 20.2211C49.1292 10.6522 41.3879 2.91596 31.8127 2.91596ZM11.9897 16.4315C13.7642 7.0898 21.9686 0.0371094 31.8127 0.0371094C42.9789 0.0371094 52.0099 9.06222 52.0099 20.2211C52.0099 21.9083 51.8029 23.5241 51.4263 25.098C51.2713 25.7458 50.6919 26.2027 50.0254 26.2027H18.7214C17.2943 26.2027 15.9518 26.6521 14.8799 27.4098L14.8718 27.4156C13.5059 28.3669 12.5163 29.8005 12.1525 31.4806H26.8835C27.679 31.4806 28.3238 32.125 28.3238 32.92C28.3238 35.0644 27.6088 37.0569 26.4419 38.6369L26.4396 38.64C23.8743 42.0937 19.7395 44.3394 15.1044 44.3394H14.5283C14.5055 44.3394 14.4828 44.3389 14.4601 44.3378C6.94411 43.9818 0.956787 37.7887 0.956787 30.2011C0.956787 23.4772 5.66881 17.8471 11.9897 16.4315Z" fill="white"/>
<path fill-rule="evenodd" clip-rule="evenodd" d="M17.2338 24.6876C17.2338 23.8896 17.8791 23.2427 18.6751 23.2427H56.6616L56.6708 23.2427C62.4832 23.2798 67.1992 27.9947 67.1992 33.8069C67.1992 36.7125 66.0096 39.3549 64.1186 41.2507C62.2257 43.1484 59.5893 44.339 56.6616 44.339H15.0558C14.2598 44.339 13.6145 43.6921 13.6145 42.8941C13.6145 42.096 14.2598 41.4491 15.0558 41.4491C18.7453 41.4491 22.0385 39.6576 24.0837 36.8952C24.0873 36.8904 24.091 36.8855 24.0946 36.8807C24.9219 35.7922 25.4012 34.4004 25.4012 32.8757C25.4012 29.1462 22.3952 26.1326 18.6751 26.1326C17.8791 26.1326 17.2338 25.4857 17.2338 24.6876ZM25.5411 26.1326C27.2383 27.8693 28.2838 30.2486 28.2838 32.8757C28.2838 35.0084 27.6122 37.0173 26.3931 38.6248C25.6024 39.6913 24.6631 40.6428 23.6063 41.4491H56.6616C58.7946 41.4491 60.7063 40.5847 62.0803 39.2072C63.4563 37.8277 64.3166 35.9105 64.3166 33.8069C64.3166 29.6022 60.8996 26.162 56.6569 26.1326H25.5411Z" fill="white"/>
<path fill-rule="evenodd" clip-rule="evenodd" d="M14.8367 18.918C14.2374 18.918 13.7035 18.9475 13.1877 19.0272C12.3936 19.1498 11.6483 18.6196 11.5229 17.8428C11.3975 17.0661 11.9396 16.3369 12.7336 16.2143C13.447 16.1041 14.1422 16.0703 14.8367 16.0703C16.7843 16.0703 18.6186 16.4589 20.2988 17.1233C21.0441 17.4181 21.404 18.248 21.1027 18.9771C20.8014 19.7061 19.953 20.0582 19.2077 19.7635C17.8474 19.2255 16.3824 18.918 14.8367 18.918Z" fill="white"/>
</svg>
