<svg width="22" height="22" viewBox="0 0 22 22" fill="none" xmlns="http://www.w3.org/2000/svg">
<path d="M12.5855 3.21645L14.1988 6.44311C14.4188 6.89228 15.0055 7.32311 15.5005 7.40561L18.4247 7.89144C20.2947 8.20311 20.7347 9.55978 19.3872 10.8981L17.1138 13.1714C16.7288 13.5564 16.518 14.2989 16.6372 14.8306L17.288 17.6448C17.8013 19.8723 16.6188 20.7339 14.648 19.5698L11.9072 17.9473C11.4122 17.6539 10.5963 17.6539 10.0922 17.9473L7.35134 19.5698C5.38967 20.7339 4.19801 19.8631 4.71134 17.6448L5.36217 14.8306C5.48134 14.2989 5.27051 13.5564 4.88551 13.1714L2.61217 10.8981C1.27384 9.55978 1.70467 8.20311 3.57467 7.89144L6.49884 7.40561C6.98467 7.32311 7.57134 6.89228 7.79134 6.44311L9.40467 3.21645C10.2847 1.46561 11.7147 1.46561 12.5855 3.21645Z" fill="white"/>
</svg>
