<svg width="80" height="80" viewBox="0 0 80 80" fill="none" xmlns="http://www.w3.org/2000/svg">
<rect opacity="0.1" width="80" height="80" rx="40" fill="#0061FF"/>
<path d="M55.1003 39.6995L54.8337 39.3328C54.367 38.7662 53.817 38.3162 53.1837 37.9828C52.3337 37.4995 51.367 37.2495 50.367 37.2495H29.617C28.617 37.2495 27.667 37.4995 26.8003 37.9828C26.1503 38.3328 25.567 38.8162 25.0837 39.4162C24.1337 40.6328 23.6837 42.1328 23.8337 43.6328L24.4503 51.4162C24.667 53.7662 24.9503 56.6662 30.2337 56.6662H49.767C55.0504 56.6662 55.317 53.7662 55.5503 51.3995L56.167 43.6495C56.317 42.2495 55.9503 40.8495 55.1003 39.6995ZM43.9837 48.8995H36.0003C35.3503 48.8995 34.8337 48.3662 34.8337 47.7328C34.8337 47.0995 35.3503 46.5662 36.0003 46.5662H43.9837C44.6337 46.5662 45.1503 47.0995 45.1503 47.7328C45.1503 48.3828 44.6337 48.8995 43.9837 48.8995Z" fill="#0061FF"/>
<path d="M54.3141 34.9006C54.3383 35.2846 53.9256 35.54 53.5706 35.3919C52.5712 34.9752 51.5032 34.7668 50.3831 34.7668H29.6165C28.4939 34.7668 27.3923 34.9866 26.3946 35.4012C26.0435 35.5471 25.6331 35.3019 25.6331 34.9217V31.1002C25.6331 25.1502 27.4498 23.3335 33.3998 23.3335H35.3665C37.7498 23.3335 38.4998 24.1002 39.4665 25.3502L41.4665 28.0168C41.8831 28.5835 41.8998 28.6168 42.6331 28.6168H46.5998C52.0333 28.6168 54.0141 30.1348 54.3141 34.9006Z" fill="#0061FF"/>
</svg>
