<svg width="15" height="3" viewBox="0 0 15 3" fill="none" xmlns="http://www.w3.org/2000/svg">
<path d="M7 1.5C7 1.77614 7.22386 2 7.5 2C7.77614 2 8 1.77614 8 1.5C8 1.22386 7.77614 1 7.5 1C7.22386 1 7 1.22386 7 1.5Z" fill="#001521"/>
<path d="M13 1.5C13 1.77614 13.2239 2 13.5 2C13.7761 2 14 1.77614 14 1.5C14 1.22386 13.7761 1 13.5 1C13.2239 1 13 1.22386 13 1.5Z" fill="#001521"/>
<path d="M1 1.5C1 1.77614 1.22386 2 1.5 2C1.77614 2 2 1.77614 2 1.5C2 1.22386 1.77614 1 1.5 1C1.22386 1 1 1.22386 1 1.5Z" fill="#001521"/>
<path d="M7 1.5C7 1.77614 7.22386 2 7.5 2C7.77614 2 8 1.77614 8 1.5C8 1.22386 7.77614 1 7.5 1C7.22386 1 7 1.22386 7 1.5Z" stroke="#001521" stroke-width="1.6" stroke-linecap="round" stroke-linejoin="round"/>
<path d="M13 1.5C13 1.77614 13.2239 2 13.5 2C13.7761 2 14 1.77614 14 1.5C14 1.22386 13.7761 1 13.5 1C13.2239 1 13 1.22386 13 1.5Z" stroke="#001521" stroke-width="1.6" stroke-linecap="round" stroke-linejoin="round"/>
<path d="M1 1.5C1 1.77614 1.22386 2 1.5 2C1.77614 2 2 1.77614 2 1.5C2 1.22386 1.77614 1 1.5 1C1.22386 1 1 1.22386 1 1.5Z" stroke="#001521" stroke-width="1.6" stroke-linecap="round" stroke-linejoin="round"/>
</svg>
