<svg width="72" height="72" viewBox="0 0 72 72" fill="none" xmlns="http://www.w3.org/2000/svg">
<rect opacity="0.15" width="72" height="72" rx="14.4" fill="#31D856"/>
<path d="M41.7 21.3147C41.085 20.6997 40.02 21.1197 40.02 21.9747V27.2097C40.02 29.3997 41.88 31.2147 44.145 31.2147C45.57 31.2297 47.55 31.2297 49.245 31.2297C50.1 31.2297 50.55 30.2247 49.95 29.6247C47.79 27.4497 43.92 23.5347 41.7 21.3147Z" fill="#31D856"/>
<path d="M48.75 33.285H44.415C40.86 33.285 37.965 30.39 37.965 26.835V22.5C37.965 21.675 37.29 21 36.465 21H30.105C25.485 21 21.75 24 21.75 29.355V42.645C21.75 48 25.485 51 30.105 51H41.895C46.515 51 50.25 48 50.25 42.645V34.785C50.25 33.96 49.575 33.285 48.75 33.285Z" fill="#31D856"/>
<path d="M28.6077 39.6615L27.5927 38.6465L26.5835 39.6615" stroke="#E0F9E6" stroke-width="1.6" stroke-linecap="round" stroke-linejoin="round"/>
<path d="M37.3923 40.3384L38.4073 41.3534L39.4223 40.3384" stroke="#E0F9E6" stroke-width="1.6" stroke-linecap="round" stroke-linejoin="round"/>
<path d="M38.4016 41.3532V39.9998C38.4016 37.0132 35.9808 34.5981 33 34.5981C31.2966 34.5981 29.7741 35.3915 28.7825 36.6223" stroke="#E0F9E6" stroke-width="1.6" stroke-linecap="round" stroke-linejoin="round"/>
<path d="M27.5981 38.6465V39.9998C27.5981 42.9865 30.019 45.4015 32.9998 45.4015C34.7031 45.4015 36.2256 44.6081 37.2173 43.3773" stroke="#E0F9E6" stroke-width="1.6" stroke-linecap="round" stroke-linejoin="round"/>
</svg>
