<svg width="38" height="26" viewBox="0 0 38 26" fill="none" xmlns="http://www.w3.org/2000/svg">
<path fill-rule="evenodd" clip-rule="evenodd" d="M10.151 14.9318C9.32481 14.9318 8.54767 15.1877 7.92713 15.6192L7.9224 15.6224C7.13171 16.1641 6.55881 16.9805 6.34823 17.9372H13.953C13.5722 16.2167 12.0168 14.9318 10.151 14.9318ZM6.96646 14.2792C7.86494 13.6552 8.97692 13.2925 10.151 13.2925C13.2242 13.2925 15.7099 15.7359 15.7099 18.7568C15.7099 19.2095 15.3365 19.5765 14.876 19.5765H5.42588C4.96536 19.5765 4.59204 19.2095 4.59204 18.7568C4.59204 16.8943 5.53036 15.2642 6.96646 14.2792Z" fill="white"/>
<path fill-rule="evenodd" clip-rule="evenodd" d="M17.6752 1.64909C12.6664 1.64909 8.51838 5.36978 7.85826 10.2075C7.80857 10.5716 7.52371 10.859 7.1598 10.912C4.03843 11.3669 1.65017 14.0483 1.65017 17.2788C1.65017 20.7317 4.37107 23.5565 7.79428 23.7286H8.10418C10.2158 23.7286 12.1007 22.7066 13.2716 21.1309C13.5858 20.7052 13.8184 20.2043 13.9373 19.6608H5.50058C5.04489 19.6608 4.67549 19.2916 4.67549 18.8363C4.67549 16.9626 5.60397 15.3227 7.025 14.3319C7.91406 13.7042 9.01435 13.3393 10.1761 13.3393H27.4373C27.5402 12.7591 27.5946 12.1692 27.5946 11.5619C27.5946 6.08061 23.1601 1.64909 17.6752 1.64909ZM6.31999 9.3912C7.33645 4.03998 12.0361 0 17.6752 0C24.0715 0 29.2447 5.16984 29.2447 11.5619C29.2447 12.5284 29.1261 13.454 28.9104 14.3556C28.8216 14.7267 28.4897 14.9884 28.1079 14.9884H10.1761C9.35859 14.9884 8.5896 15.2459 7.97558 15.6799L7.9709 15.6832C7.18851 16.2281 6.62161 17.0494 6.41325 18.0117H14.8516C15.3072 18.0117 15.6766 18.3809 15.6766 18.8363C15.6766 20.0647 15.2671 21.206 14.5986 22.111L14.5973 22.1128C13.1278 24.0913 10.7593 25.3777 8.10418 25.3777H7.77415C7.76112 25.3777 7.7481 25.3773 7.73509 25.3767C3.42971 25.1728 0 21.6252 0 17.2788C0 13.4271 2.69918 10.2021 6.31999 9.3912Z" fill="white"/>
<path fill-rule="evenodd" clip-rule="evenodd" d="M9.32433 14.1202C9.32433 13.6631 9.69398 13.2925 10.15 13.2925H31.9097L31.915 13.2925C35.2445 13.3138 37.946 16.0146 37.946 19.344C37.946 21.0084 37.2645 22.522 36.1813 23.608C35.097 24.6951 33.5868 25.3771 31.9097 25.3771H8.07672C7.62074 25.3771 7.2511 25.0065 7.2511 24.5494C7.2511 24.0922 7.62074 23.7217 8.07672 23.7217C10.1901 23.7217 12.0766 22.6954 13.2482 21.1131C13.2502 21.1103 13.2523 21.1075 13.2544 21.1048C13.7283 20.4812 14.0029 19.6839 14.0029 18.8106C14.0029 16.6742 12.2809 14.9479 10.15 14.9479C9.69398 14.9479 9.32433 14.5773 9.32433 14.1202ZM14.083 14.9479C15.0552 15.9428 15.6541 17.3057 15.6541 18.8106C15.6541 20.0322 15.2694 21.183 14.5711 22.1038C14.1181 22.7147 13.5801 23.2598 12.9747 23.7217H31.9097C33.1316 23.7217 34.2267 23.2265 35.0137 22.4374C35.8019 21.6472 36.2947 20.549 36.2947 19.344C36.2947 16.9354 34.3374 14.9648 31.907 14.9479H14.083Z" fill="white"/>
<path fill-rule="evenodd" clip-rule="evenodd" d="M7.95092 10.8149C7.60761 10.8149 7.30178 10.8317 7.00631 10.8774C6.55145 10.9476 6.1245 10.6439 6.05268 10.1989C5.98086 9.75398 6.29137 9.33633 6.74623 9.26608C7.15483 9.20296 7.5531 9.18359 7.95092 9.18359C9.06658 9.18359 10.1173 9.4062 11.0798 9.7868C11.5067 9.95563 11.7129 10.431 11.5403 10.8487C11.3677 11.2663 10.8817 11.468 10.4548 11.2992C9.67552 10.991 8.83636 10.8149 7.95092 10.8149Z" fill="white"/>
<path fill-rule="evenodd" clip-rule="evenodd" d="M17.6442 19.3359C17.6442 19.069 17.893 18.8525 18.2001 18.8525H33.765C34.072 18.8525 34.3209 19.069 34.3209 19.3359C34.3209 19.6029 34.072 19.8193 33.765 19.8193H18.2001C17.893 19.8193 17.6442 19.6029 17.6442 19.3359Z" fill="white"/>
</svg>
